<svg width="311" height="249" viewBox="0 0 311 249" fill="none" xmlns="http://www.w3.org/2000/svg">
<path fill-rule="evenodd" clip-rule="evenodd" d="M257.345 80.625C262.147 80.625 266.039 84.5124 266.039 89.3078C266.039 94.1032 262.147 97.9906 257.345 97.9906H207.665C212.467 97.9906 216.359 101.878 216.359 106.673C216.359 111.469 212.467 115.356 207.665 115.356H234.989C239.791 115.356 243.683 119.244 243.683 124.039C243.683 128.834 239.791 132.722 234.989 132.722H222.353C216.299 132.722 211.391 136.609 211.391 141.405C211.391 144.601 213.875 147.496 218.843 150.087C223.645 150.087 227.537 153.975 227.537 158.77C227.537 163.566 223.645 167.453 218.843 167.453H115.757C110.955 167.453 107.063 163.566 107.063 158.77C107.063 153.975 110.955 150.087 115.757 150.087H67.319C62.5174 150.087 58.625 146.2 58.625 141.405C58.625 136.609 62.5174 132.722 67.319 132.722H116.999C121.801 132.722 125.693 128.834 125.693 124.039C125.693 119.244 121.801 115.356 116.999 115.356H85.949C81.1474 115.356 77.255 111.469 77.255 106.673C77.255 101.878 81.1474 97.9906 85.949 97.9906H135.629C130.827 97.9906 126.935 94.1032 126.935 89.3078C126.935 84.5124 130.827 80.625 135.629 80.625H257.345ZM257.345 115.356C262.147 115.356 266.039 119.244 266.039 124.039C266.039 128.834 262.147 132.722 257.345 132.722C252.543 132.722 248.651 128.834 248.651 124.039C248.651 119.244 252.543 115.356 257.345 115.356Z" fill="white"/>
<path fill-rule="evenodd" clip-rule="evenodd" d="M191.097 79.3848L202.661 163.547L203.7 171.99C204.035 174.711 202.099 177.186 199.376 177.52L126.656 186.428C123.933 186.762 121.455 184.827 121.12 182.107L109.91 91.017C109.743 89.657 110.711 88.4192 112.072 88.2524C112.081 88.2514 112.089 88.2504 112.098 88.2494L118.131 87.5743M123.012 87.0367L128.709 86.3991L123.012 87.0367Z" fill="white"/>
<path d="M193.079 79.1131C192.929 78.0185 191.92 77.2527 190.825 77.4028C189.73 77.5529 188.965 78.5619 189.115 79.6565L193.079 79.1131ZM202.661 163.547L204.647 163.303C204.646 163.294 204.645 163.285 204.644 163.275L202.661 163.547ZM203.7 171.99L205.686 171.747L203.7 171.99ZM199.376 177.52L199.62 179.505L199.376 177.52ZM126.656 186.428L126.9 188.414L126.656 186.428ZM121.12 182.107L123.106 181.863L121.12 182.107ZM109.91 91.017L107.924 91.2608L109.91 91.017ZM112.072 88.2524L111.828 86.2667L112.072 88.2524ZM112.098 88.2494L112.321 90.2376L112.098 88.2494ZM118.354 89.5624C119.452 89.4395 120.243 88.4498 120.119 87.3518C119.996 86.2537 119.006 85.4632 117.908 85.5861L118.354 89.5624ZM122.788 85.0486C121.69 85.1715 120.9 86.1613 121.023 87.2593C121.147 88.3573 122.137 89.1478 123.235 89.0249L122.788 85.0486ZM128.932 88.3872C130.03 88.2643 130.82 87.2746 130.697 86.1765C130.574 85.0785 129.583 84.288 128.485 84.4109L128.932 88.3872ZM189.115 79.6565L200.679 163.819L204.644 163.275L193.079 79.1131L189.115 79.6565ZM200.676 163.791L201.715 172.234L205.686 171.747L204.647 163.303L200.676 163.791ZM201.715 172.234C201.914 173.856 200.76 175.334 199.133 175.534L199.62 179.505C203.438 179.038 206.156 175.565 205.686 171.747L201.715 172.234ZM199.133 175.534L126.412 184.443L126.9 188.414L199.62 179.505L199.133 175.534ZM126.412 184.443C124.784 184.642 123.305 183.485 123.106 181.863L119.134 182.351C119.604 186.169 123.083 188.882 126.9 188.414L126.412 184.443ZM123.106 181.863L111.896 90.7733L107.924 91.2608L119.134 182.351L123.106 181.863ZM111.896 90.7733C111.864 90.5118 112.05 90.2708 112.316 90.2382L111.828 86.2667C109.372 86.5677 107.622 88.8021 107.924 91.2608L111.896 90.7733ZM112.316 90.2382C112.318 90.238 112.319 90.2378 112.321 90.2376L111.875 86.2613C111.859 86.263 111.844 86.2648 111.828 86.2667L112.316 90.2382ZM112.321 90.2376L118.354 89.5624L117.908 85.5861L111.875 86.2613L112.321 90.2376ZM123.235 89.0249L128.932 88.3872L128.485 84.4109L122.788 85.0486L123.235 89.0249Z" fill="#1F64E7"/>
<path fill-rule="evenodd" clip-rule="evenodd" d="M187.966 84.6814L198.424 160.946L199.364 168.597C199.667 171.062 197.936 173.302 195.497 173.601L130.364 181.588C127.925 181.887 125.703 180.132 125.4 177.667L115.365 96.0482C115.149 94.2935 116.397 92.6967 118.152 92.4815L125.498 91.5807" fill="#E8F0FE"/>
<path d="M134.737 68.4216C134.737 65.9908 136.708 64.0202 139.138 64.0202H193.695C194.86 64.0202 195.979 64.4827 196.804 65.3064L198.201 63.9064L196.804 65.3064L212.658 81.1299C213.485 81.9556 213.95 83.0764 213.95 84.2451V159.811C213.95 162.242 211.979 164.212 209.548 164.212H139.138C136.708 164.212 134.737 162.242 134.737 159.811V68.4216Z" fill="white" stroke="#1F64E7" stroke-width="4.00129"/>
<path d="M194.838 65V79.3851C194.838 81.4403 196.506 83.1063 198.564 83.1063H208.417" stroke="#1F64E7" stroke-width="4.00129" stroke-linecap="round" stroke-linejoin="round"/>
<path d="M146.807 146.368H179.099M146.807 83.1074H179.099H146.807ZM146.807 97.9922H200.213H146.807ZM146.807 114.117H200.213H146.807ZM146.807 130.243H200.213H146.807Z" stroke="#75A4FE" stroke-width="4.00129" stroke-linecap="round" stroke-linejoin="round"/>
</svg>
