<svg width="131" height="156" viewBox="0 0 131 156" fill="none" xmlns="http://www.w3.org/2000/svg">
<path d="M147.85 125.888C137.688 145.084 114.205 154.527 93.7748 158.347C91.5383 158.764 89.2694 159.105 86.968 159.369C87.083 158.911 87.1418 158.442 87.143 157.97V87.2861C107.651 99.8256 137.027 99.8256 151.127 77.9779C156.884 69.0748 158.906 57.2973 154.462 47.4297C151.108 39.9253 144.038 40.504 137.095 41.8255C131.333 42.9386 125.688 44.5822 120.234 46.7352C107.943 51.5607 96.7114 58.7051 87.1625 67.7726V47.3236C87.1625 40.2436 76.0771 40.2339 76.0771 47.3236V81.296C70.0507 73.7523 63.0548 67.0235 55.2677 61.281C50.0498 57.4138 44.4684 54.0544 38.6008 51.2494C32.5719 48.3557 24.4134 44.3913 19.3861 51.153C15.7688 55.9759 14.2907 62.8629 13.6489 68.7662C13.0107 74.7871 13.5388 80.8735 15.2048 86.6977C16.8436 92.5568 19.6638 98.0252 23.4946 102.772C27.3255 107.519 32.0874 111.445 37.4922 114.314C49.2486 120.429 63.6012 121.741 76.0966 117.072V157.97C76.0948 158.687 76.23 159.397 76.4952 160.063C61.6758 160.256 46.7398 157.093 34.0402 149.453C23.7327 143.261 14.2324 133.962 11.4708 121.982C9.87602 115.085 -0.81067 118.008 0.774344 124.876C6.33648 148.99 31.9593 164.423 54.8788 168.976C78.7123 173.732 103.878 169.748 125.708 159.379C138.632 153.244 150.641 144.177 157.409 131.406C160.734 125.184 151.176 119.619 147.85 125.888ZM116.529 60.384C124.814 56.1977 134.625 52.5323 143.97 51.8089C144.112 51.8037 144.252 51.7811 144.388 51.7414V51.8089C144.923 52.3876 145.069 53.738 145.263 54.5386C145.719 56.4096 145.889 58.3376 145.769 60.2586C145.541 63.9179 144.466 67.4759 142.628 70.6567C140.596 74.2556 137.783 77.3617 134.393 79.7505C131.003 82.1393 127.12 83.7511 123.025 84.4695C112.6 86.524 101.632 83.1962 92.7344 77.7946L92.5885 77.7271C92.8146 77.5614 93.0321 77.3843 93.24 77.1966C100.046 70.3926 107.909 64.7163 116.529 60.384ZM74.3268 106.115C56.7652 113.262 35.4307 106.115 27.5737 88.4918C23.8344 79.9681 23.4665 70.3606 26.543 61.5801C26.854 60.6897 27.2144 59.817 27.6223 58.966C27.671 58.8696 27.739 58.7538 27.8071 58.6477C28.4586 58.966 30.1311 59.4483 30.5007 59.6123C31.9106 60.2393 33.3109 60.9048 34.6917 61.5415C39.3967 63.9057 43.9121 66.6241 48.1984 69.6729C57.7544 76.5382 65.9526 85.0923 72.382 94.9062C72.7828 95.561 73.3229 96.1212 73.9644 96.5477C74.606 96.9742 75.3336 97.2567 76.0966 97.3755V105.825C75.4921 105.786 74.8867 105.885 74.3268 106.115Z" fill="#0EAA4F"/>
<path d="M28.2067 34.7319C30.9975 36.3909 34.0411 35.137 35.7915 32.7545C45.8461 19.1443 62.9409 11.5338 79.7148 11.0708C89.2733 10.867 98.7808 12.5049 107.71 15.8936C111.978 17.4808 116.105 19.4166 120.05 21.6811C122.218 22.9254 124.397 24.218 126.439 25.6648C127.265 26.2532 127.907 26.9284 128.685 27.594C128.829 27.7015 128.952 27.8358 129.045 27.9895C129.096 27.8607 129.161 27.7378 129.239 27.6229C129.161 27.7483 129.113 27.8641 129.045 27.9895C129.288 28.4042 128.86 28.5103 129.045 27.9895C125.846 33.8348 135.074 38.9953 138.769 33.1596C145.974 21.903 127.829 13.0578 120.04 9.28629C109.037 3.83333 97.0163 0.693947 84.7324 0.0649199C62.0657 -0.899658 39.7005 8.91974 26.223 27.1696C24.4338 29.581 25.8341 33.2753 28.2067 34.7319Z" fill="#0EAA4F"/>
</svg>
