<svg width="672" height="672" viewBox="0 0 672 672" fill="none" xmlns="http://www.w3.org/2000/svg">
<path d="M318.528 454.003H59.0153C56.9823 454 55.0338 453.189 53.5975 451.751C52.1612 450.312 51.3545 448.362 51.3545 446.329V81.527C51.3722 79.5056 52.1867 77.5729 53.6211 76.1486C55.0555 74.7242 56.9939 73.9234 59.0153 73.9199H318.528C320.564 73.9199 322.516 74.7285 323.955 76.1677C325.394 77.6069 326.203 79.5588 326.203 81.5942V446.329C326.203 448.364 325.394 450.316 323.955 451.755C322.516 453.195 320.564 454.003 318.528 454.003ZM59.0153 74.1887C57.0714 74.1923 55.2083 74.967 53.8351 76.3428C52.4618 77.7186 51.6905 79.5831 51.6905 81.527V446.329C51.6905 448.273 52.4618 450.137 53.8351 451.513C55.2083 452.889 57.0714 453.664 59.0153 453.667H318.528C320.473 453.664 322.338 452.889 323.713 451.514C325.089 450.138 325.863 448.274 325.867 446.329V81.527C325.863 79.5818 325.089 77.7174 323.713 76.342C322.338 74.9665 320.473 74.1923 318.528 74.1887H59.0153Z" fill="#EBEBEB"/>
<path d="M609.248 454.003H349.722C347.688 454 345.738 453.19 344.3 451.751C342.861 450.313 342.051 448.363 342.048 446.329V81.527C342.069 79.5044 342.887 77.5717 344.323 76.1477C345.76 74.7238 347.699 73.9233 349.722 73.9199H609.248C611.268 73.9269 613.203 74.7293 614.634 76.1533C616.066 77.5772 616.878 79.5079 616.896 81.527V446.329C616.896 448.36 616.091 450.307 614.658 451.746C613.224 453.184 611.279 453.996 609.248 454.003ZM349.722 74.1887C347.777 74.1923 345.913 74.9665 344.537 76.342C343.162 77.7174 342.387 79.5818 342.384 81.527V446.329C342.387 448.274 343.162 450.138 344.537 451.514C345.913 452.889 347.777 453.664 349.722 453.667H609.248C611.194 453.664 613.058 452.889 614.433 451.514C615.809 450.138 616.583 448.274 616.587 446.329V81.527C616.583 79.5818 615.809 77.7174 614.433 76.342C613.058 74.9665 611.194 74.1923 609.248 74.1887H349.722Z" fill="#EBEBEB"/>
<path d="M604.666 535.57H560.152V535.906H604.666V535.57Z" fill="#EBEBEB"/>
<path d="M445.16 539.226H433.48V539.562H445.16V539.226Z" fill="#EBEBEB"/>
<path d="M558.808 523.098H533.017V523.434H558.808V523.098Z" fill="#EBEBEB"/>
<path d="M128.553 525.356H70.5059V525.692H128.553V525.356Z" fill="#EBEBEB"/>
<path d="M149.036 525.356H140.528V525.692H149.036V525.356Z" fill="#EBEBEB"/>
<path d="M302.601 531.028H176.695V531.364H302.601V531.028Z" fill="#EBEBEB"/>
<path d="M672 513.945H0V514.281H672V513.945Z" fill="#EBEBEB"/>
<path d="M208.239 127.895H50.1582V361.482H208.239V127.895Z" fill="#E0E0E0"/>
<path d="M214.059 127.895H55.9775V361.482H214.059V127.895Z" fill="#F0F0F0"/>
<path d="M206.062 251.382H63.665V347.8H206.062V251.382Z" fill="#EBEBEB"/>
<path d="M206.062 137.384H63.665V251.382H206.062V137.384Z" fill="white"/>
<path d="M206.062 137.384H201.049V347.8H206.062V137.384Z" fill="#E0E0E0"/>
<path d="M63.2217 251.395V256.476H201.586V251.395H63.2217Z" fill="#E0E0E0"/>
<path d="M206.062 242.847H60.9775V251.382H206.062V242.847Z" fill="#F0F0F0"/>
<path d="M588.9 405.256H396.225C381.624 405.256 369.788 417.092 369.788 431.693V489.041C369.788 503.642 381.624 515.478 396.225 515.478H588.9C603.501 515.478 615.337 503.642 615.337 489.041V431.693C615.337 417.092 603.501 405.256 588.9 405.256Z" fill="#E0E0E0"/>
<path d="M575.958 406.062H383.282C368.682 406.062 356.846 417.898 356.846 432.499V489.847C356.846 504.448 368.682 516.284 383.282 516.284H575.958C590.558 516.284 602.394 504.448 602.394 489.847V432.499C602.394 417.898 590.558 406.062 575.958 406.062Z" fill="#F5F5F5"/>
<path d="M388.012 416.465H572.678C575.103 416.465 577.504 416.943 579.745 417.871C581.985 418.799 584.021 420.159 585.736 421.874C587.451 423.589 588.811 425.625 589.739 427.865C590.667 430.106 591.145 432.507 591.145 434.932V457.592H369.6V434.918C369.603 430.032 371.543 425.347 374.994 421.888C378.445 418.43 383.126 416.48 388.012 416.465Z" fill="#E0E0E0"/>
<path d="M369.6 463.143H591.145V485.802C591.145 490.7 589.199 495.397 585.736 498.86C582.273 502.323 577.576 504.269 572.678 504.269H388.012C383.124 504.255 378.441 502.303 374.989 498.841C371.538 495.38 369.6 490.691 369.6 485.802V463.143Z" fill="#E0E0E0"/>
<path d="M531.538 424.422H490.963V457.847H531.538V424.422Z" fill="#E6E6E6"/>
<path d="M490.963 424.422H480.574V457.847H490.963V424.422Z" fill="#F5F5F5"/>
<path d="M489.216 448.896C489.216 449.571 489.016 450.231 488.641 450.792C488.266 451.354 487.733 451.791 487.109 452.05C486.485 452.308 485.799 452.376 485.136 452.244C484.474 452.112 483.866 451.787 483.389 451.31C482.911 450.832 482.586 450.224 482.454 449.562C482.323 448.9 482.39 448.213 482.649 447.589C482.907 446.966 483.344 446.432 483.906 446.057C484.467 445.682 485.127 445.482 485.802 445.482C486.708 445.482 487.576 445.842 488.216 446.482C488.857 447.122 489.216 447.99 489.216 448.896Z" fill="#E0E0E0"/>
<path d="M542.183 419.261H511.701V457.847H542.183V419.261Z" fill="#E6E6E6"/>
<path d="M511.714 419.261H502.897V457.847H511.714V419.261Z" fill="#F5F5F5"/>
<path d="M507.306 427.889C508.976 427.889 510.33 426.535 510.33 424.865C510.33 423.195 508.976 421.841 507.306 421.841C505.636 421.841 504.282 423.195 504.282 424.865C504.282 426.535 505.636 427.889 507.306 427.889Z" fill="#E0E0E0"/>
<path d="M507.306 427.889C508.976 427.889 510.33 426.535 510.33 424.865C510.33 423.195 508.976 421.841 507.306 421.841C505.636 421.841 504.282 423.195 504.282 424.865C504.282 426.535 505.636 427.889 507.306 427.889Z" fill="#E0E0E0"/>
<path d="M546.376 424.422H520.679V457.847H546.376V424.422Z" fill="#EBEBEB"/>
<path d="M520.679 424.422H514.806V457.847H520.679V424.422Z" fill="#F5F5F5"/>
<path d="M575.42 430.08H541.713V457.861H575.42V430.08Z" fill="#E6E6E6"/>
<path d="M541.712 430.08H533.084V457.861H541.712V430.08Z" fill="#F5F5F5"/>
<path d="M584.251 425.792H558.93V457.847H584.251V425.792Z" fill="#E6E6E6"/>
<path d="M558.957 425.792H551.632V457.847H558.957V425.792Z" fill="#F5F5F5"/>
<path d="M590.998 430.08H566.402V457.861H590.998V430.08Z" fill="#E6E6E6"/>
<path d="M566.388 430.08H561.51V457.861H566.388V430.08Z" fill="#F0F0F0"/>
<path d="M434.556 469.566H403.146V502.992H434.556V469.566Z" fill="#E6E6E6"/>
<path d="M403.16 469.566H395.109V502.992H403.16V469.566Z" fill="#F5F5F5"/>
<path d="M442.781 464.406H419.193V502.992H442.781V464.406Z" fill="#E6E6E6"/>
<path d="M419.207 464.406H412.393V502.992H419.207V464.406Z" fill="#F5F5F5"/>
<path d="M541.699 469.566H510.29V502.992H541.699V469.566Z" fill="#E6E6E6"/>
<path d="M510.303 469.566H502.253V502.992H510.303V469.566Z" fill="#F5F5F5"/>
<path d="M549.924 464.406H526.337V502.992H549.924V464.406Z" fill="#E6E6E6"/>
<path d="M526.365 464.406H519.537V502.992H526.365V464.406Z" fill="#F5F5F5"/>
<path d="M446.046 469.566H426.155V502.992H446.046V469.566Z" fill="#EBEBEB"/>
<path d="M426.156 469.566H421.613V502.992H426.156V469.566Z" fill="#F5F5F5"/>
<path d="M468.519 475.225H442.432V503.006H468.519V475.225Z" fill="#E6E6E6"/>
<path d="M442.432 475.225H435.752V503.006H442.432V475.225Z" fill="#F5F5F5"/>
<path d="M475.359 470.938H455.764V502.992H475.359V470.938Z" fill="#E6E6E6"/>
<path d="M455.777 470.938H450.105V502.992H455.777V470.938Z" fill="#F5F5F5"/>
<path d="M480.587 475.225H461.543V503.006H480.587V475.225Z" fill="#E6E6E6"/>
<path d="M461.53 475.225H457.753V503.006H461.53V475.225Z" fill="#F0F0F0"/>
<path d="M457.565 373.202C457.235 372.561 456.709 372.042 456.064 371.72C455.418 371.399 454.687 371.292 453.977 371.415C453.262 371.589 452.619 371.982 452.138 372.538C451.656 373.095 451.359 373.787 451.289 374.519C450.8 374.157 450.211 373.954 449.603 373.937C448.995 373.92 448.396 374.091 447.888 374.425C447.38 374.794 446.985 375.298 446.747 375.88C446.51 376.462 446.439 377.098 446.544 377.718C446.262 377.511 445.94 377.366 445.598 377.291C445.256 377.216 444.903 377.213 444.56 377.283C444.217 377.352 443.892 377.493 443.607 377.695C443.321 377.897 443.081 378.157 442.902 378.457C442.572 379.104 442.503 379.853 442.711 380.549C442.919 381.245 443.387 381.834 444.018 382.193C443.582 382.257 443.184 382.479 442.901 382.816C442.617 383.153 442.467 383.582 442.479 384.023C442.49 384.463 442.663 384.884 442.964 385.206C443.265 385.527 443.673 385.727 444.112 385.768C443.66 385.803 443.235 385.993 442.909 386.307C442.583 386.621 442.376 387.039 442.324 387.489C442.275 387.941 442.382 388.396 442.626 388.779C442.87 389.163 443.238 389.452 443.668 389.599C443.456 389.722 443.273 389.89 443.135 390.093C442.996 390.295 442.905 390.526 442.868 390.769C442.83 391.011 442.848 391.259 442.919 391.494C442.99 391.729 443.113 391.945 443.278 392.126C443.468 392.273 443.69 392.373 443.927 392.415C444.163 392.458 444.407 392.442 444.636 392.369C444.865 392.296 445.073 392.169 445.241 391.997C445.41 391.826 445.534 391.616 445.603 391.386C445.637 391.453 445.686 391.51 445.746 391.554C445.806 391.598 445.875 391.627 445.949 391.639C446.022 391.651 446.098 391.645 446.168 391.622C446.239 391.599 446.303 391.56 446.356 391.507C446.404 391.447 446.439 391.377 446.458 391.303C446.477 391.228 446.481 391.15 446.468 391.074C446.455 390.998 446.427 390.926 446.384 390.861C446.342 390.797 446.287 390.742 446.222 390.701C446.33 390.824 446.469 390.915 446.626 390.963C446.782 391.012 446.949 391.016 447.107 390.976C447.266 390.935 447.41 390.852 447.524 390.735C447.638 390.617 447.718 390.471 447.754 390.311C447.702 390.693 447.751 391.082 447.896 391.439C448.04 391.797 448.275 392.11 448.578 392.349C448.88 392.588 449.24 392.743 449.621 392.801C450.002 392.858 450.391 392.816 450.751 392.677C450.675 392.854 450.638 393.045 450.643 393.238C450.647 393.43 450.693 393.62 450.777 393.793C450.861 393.966 450.982 394.12 451.13 394.242C451.279 394.365 451.452 394.455 451.638 394.504C452.388 394.628 453.157 394.475 453.802 394.074C454.443 393.671 455.171 393.427 455.925 393.362C456.579 393.445 457.217 393.621 457.82 393.886C458.833 394.192 459.911 394.211 460.934 393.941C461.957 393.67 462.884 393.121 463.613 392.354C463.886 392.668 464.234 392.908 464.624 393.052C465.014 393.196 465.434 393.239 465.846 393.177C466.257 393.115 466.646 392.951 466.977 392.699C467.308 392.447 467.57 392.116 467.739 391.736C467.804 392.126 468 392.482 468.294 392.747C468.589 393.011 468.964 393.168 469.359 393.192C469.754 393.215 470.145 393.104 470.468 392.876C470.792 392.648 471.028 392.317 471.139 391.937V392.986C471.506 393.017 471.874 392.955 472.21 392.806C472.547 392.658 472.84 392.427 473.064 392.135C473.287 391.843 473.434 391.5 473.49 391.136C473.546 390.773 473.509 390.401 473.384 390.056C473.913 390.035 474.417 389.828 474.808 389.471C475.199 389.115 475.452 388.632 475.521 388.107C475.581 387.577 475.456 387.043 475.167 386.594C474.878 386.146 474.442 385.812 473.935 385.647C474.801 385.365 475.557 384.817 476.096 384.082C476.635 383.347 476.929 382.462 476.938 381.55C476.947 380.639 476.67 379.748 476.146 379.002C475.621 378.257 474.876 377.695 474.016 377.395C473.689 377.271 473.337 377.231 472.991 377.281C472.646 377.33 472.318 377.467 472.04 377.678C471.906 377.794 471.799 377.937 471.725 378.098C471.652 378.259 471.614 378.434 471.614 378.612C471.614 378.789 471.652 378.964 471.725 379.125C471.799 379.286 471.906 379.43 472.04 379.546C472.276 378.715 472.238 377.83 471.934 377.022C471.629 376.214 471.072 375.525 470.346 375.057C469.604 374.663 468.747 374.543 467.925 374.721C467.104 374.898 466.371 375.359 465.858 376.024C466.104 375.657 466.236 375.224 466.236 374.781C466.236 374.338 466.104 373.906 465.858 373.538C465.617 373.189 465.269 372.928 464.866 372.794C464.463 372.661 464.028 372.662 463.626 372.799C463.528 372.244 463.224 371.747 462.776 371.406C462.328 371.065 461.768 370.905 461.207 370.958C460.652 371.082 460.16 371.404 459.824 371.864C459.488 372.324 459.33 372.89 459.379 373.457C459.335 373.237 459.226 373.035 459.067 372.876C458.907 372.718 458.704 372.611 458.483 372.57C458.262 372.528 458.033 372.553 457.827 372.641C457.62 372.73 457.445 372.879 457.323 373.068C456.772 372.893 457.565 373.202 457.565 373.202Z" fill="#EBEBEB"/>
<path d="M457.968 383.94C457.748 383.778 457.498 383.661 457.233 383.596C456.968 383.532 456.692 383.521 456.422 383.564C456.157 383.616 455.911 383.742 455.714 383.927C455.516 384.113 455.375 384.35 455.307 384.612C455.252 384.879 455.298 385.156 455.438 385.39C455.577 385.624 455.799 385.797 456.059 385.875C456.691 386.037 457.336 385.499 457.981 385.593C458.223 385.593 458.438 385.741 458.667 385.795C459.157 385.85 459.653 385.794 460.118 385.631C460.584 385.469 461.006 385.203 461.355 384.854C461.643 384.67 461.894 384.433 462.094 384.155C462.194 384.016 462.255 383.853 462.269 383.683C462.283 383.512 462.25 383.341 462.175 383.187C462.024 383.004 461.823 382.867 461.597 382.793C461.371 382.719 461.128 382.712 460.898 382.771C459.942 382.876 459.037 383.254 458.29 383.859L458.358 383.416L457.968 383.94Z" fill="#FAFAFA"/>
<path d="M471.583 383.134C471.344 382.934 471.064 382.787 470.763 382.704C470.615 382.658 470.457 382.655 470.307 382.695C470.157 382.736 470.022 382.818 469.917 382.932C469.81 383.117 469.775 383.335 469.82 383.543C469.865 383.752 469.985 383.937 470.158 384.061C470.51 384.298 470.918 384.437 471.341 384.464C471.785 384.532 472.322 384.545 472.537 384.169C472.601 384.023 472.615 383.86 472.579 383.705C472.543 383.55 472.457 383.411 472.336 383.309C472.087 383.11 471.798 382.967 471.489 382.892L471.583 383.134Z" fill="#FAFAFA"/>
<path d="M450.065 376.051C449.632 376.237 449.249 376.523 448.948 376.885C448.646 377.247 448.435 377.675 448.331 378.134C448.28 378.266 448.27 378.41 448.304 378.547C448.338 378.684 448.413 378.808 448.519 378.901C448.613 378.941 448.713 378.961 448.815 378.961C448.917 378.961 449.017 378.941 449.111 378.901L451.597 378.309C451.191 378.44 450.813 378.645 450.482 378.914C450.315 379.046 450.187 379.221 450.111 379.419C450.036 379.618 450.015 379.833 450.051 380.043C450.133 380.281 450.29 380.486 450.499 380.627C450.707 380.767 450.956 380.836 451.207 380.822C451.701 380.782 452.171 380.589 452.551 380.271C452.784 380.138 452.983 379.954 453.135 379.733C453.286 379.512 453.385 379.26 453.425 378.995C453.425 378.47 452.753 377.973 452.35 378.309C453.304 378.05 454.211 377.642 455.038 377.1C455.339 376.911 455.599 376.664 455.804 376.374C455.905 376.225 455.965 376.053 455.979 375.874C455.994 375.695 455.961 375.515 455.884 375.352C455.038 373.807 453.963 376.078 453.438 376.28C452.457 376.67 451.328 375.514 450.065 376.051Z" fill="#FAFAFA"/>
<path d="M446.208 382.65C446.157 382.801 446.15 382.964 446.188 383.119C446.226 383.274 446.308 383.414 446.423 383.524C446.484 383.57 446.554 383.603 446.629 383.62C446.704 383.638 446.781 383.639 446.856 383.623C446.931 383.608 447.002 383.577 447.064 383.532C447.126 383.487 447.178 383.429 447.216 383.363C446.642 383.471 446.118 383.763 445.724 384.196C445.634 384.308 445.569 384.438 445.535 384.578C445.501 384.718 445.498 384.863 445.526 385.004C445.554 385.146 445.613 385.279 445.698 385.394C445.784 385.51 445.894 385.606 446.02 385.674C446.2 385.706 446.384 385.702 446.562 385.66C446.74 385.618 446.908 385.541 447.055 385.432C447.957 384.942 448.816 384.376 449.622 383.739C449.38 384.317 449.971 384.962 450.59 385.083C451.217 385.071 451.825 384.86 452.323 384.478C452.982 384.075 453.667 383.47 453.56 382.731C453.429 382.43 453.193 382.188 452.896 382.049C452.599 381.911 452.261 381.886 451.947 381.978C451.329 382.236 450.788 382.648 450.375 383.175C450.724 382.677 450.24 381.911 449.622 381.831C449.323 381.815 449.024 381.874 448.753 382C448.481 382.127 448.244 382.318 448.063 382.556C448.762 382.167 448.91 381.212 447.982 381.064C447.364 380.917 446.343 382.153 446.208 382.65Z" fill="#FAFAFA"/>
<path d="M465.226 380.432C465.093 380.388 464.952 380.371 464.812 380.382C464.672 380.393 464.536 380.431 464.411 380.495C464.286 380.559 464.175 380.646 464.084 380.753C463.993 380.86 463.925 380.984 463.882 381.118C463.855 381.253 463.854 381.392 463.88 381.527C463.907 381.662 463.959 381.791 464.036 381.906C464.112 382.021 464.21 382.12 464.324 382.196C464.438 382.273 464.567 382.327 464.702 382.354C464.294 382.396 463.919 382.593 463.654 382.905C463.575 382.99 463.514 383.089 463.475 383.198C463.436 383.306 463.419 383.422 463.425 383.537C463.467 383.7 463.563 383.845 463.697 383.947C463.831 384.049 463.996 384.104 464.164 384.101C464.507 384.087 464.843 383.995 465.145 383.833C464.808 383.829 464.477 383.922 464.191 384.101C464.121 384.148 464.062 384.209 464.016 384.28C463.97 384.351 463.94 384.43 463.926 384.513C463.912 384.596 463.915 384.681 463.936 384.763C463.956 384.845 463.992 384.921 464.043 384.988C464.158 385.068 464.291 385.118 464.429 385.132C464.568 385.146 464.708 385.124 464.836 385.069C465.451 384.906 466.014 384.592 466.476 384.155C466.639 384.351 466.845 384.505 467.079 384.605C467.312 384.706 467.566 384.75 467.82 384.733C467.946 384.714 468.066 384.669 468.174 384.602C468.282 384.535 468.375 384.446 468.448 384.342C468.521 384.238 468.572 384.12 468.598 383.995C468.624 383.871 468.625 383.742 468.599 383.618C468.529 383.447 468.412 383.299 468.263 383.19C468.113 383.081 467.937 383.015 467.753 382.999C467.383 382.98 467.013 383.035 466.664 383.161C467.053 382.948 467.36 382.612 467.538 382.206C467.672 381.79 467.39 381.225 466.946 381.266C466.503 381.306 466.207 381.964 465.817 382.206C465.374 381.763 466.274 380.822 465.226 380.432Z" fill="#FAFAFA"/>
<path d="M456.341 378.376C456.078 378.59 455.873 378.868 455.746 379.183C455.619 379.498 455.574 379.84 455.616 380.177C455.616 380.554 455.715 380.923 455.904 381.249C456.093 381.575 456.364 381.845 456.691 382.032C456.923 382.104 457.169 382.126 457.41 382.096C457.652 382.066 457.884 381.984 458.091 381.857C458.299 381.73 458.477 381.56 458.613 381.358C458.749 381.156 458.841 380.928 458.882 380.688C458.931 380.197 458.829 379.704 458.588 379.273C458.348 378.843 457.981 378.497 457.538 378.282C457.345 378.204 457.136 378.172 456.928 378.188C456.721 378.205 456.52 378.269 456.341 378.376Z" fill="#FAFAFA"/>
<path d="M462.631 377.57L462.86 377.771C462.766 377.644 462.646 377.537 462.508 377.459C462.37 377.381 462.217 377.333 462.06 377.318C461.902 377.302 461.743 377.321 461.592 377.371C461.442 377.421 461.304 377.503 461.187 377.61C461.071 377.717 460.978 377.848 460.915 377.993C460.852 378.139 460.821 378.296 460.822 378.454C460.824 378.613 460.859 378.769 460.926 378.913C460.992 379.057 461.088 379.186 461.207 379.29C461.443 379.491 461.749 379.59 462.058 379.568C462.367 379.545 462.655 379.402 462.86 379.169C463.182 379.328 463.548 379.379 463.901 379.314C464.255 379.248 464.578 379.07 464.822 378.806C465.032 378.522 465.121 378.167 465.071 377.817C465.02 377.467 464.835 377.152 464.553 376.938C464.398 376.862 464.226 376.826 464.053 376.833C463.88 376.84 463.712 376.89 463.563 376.978C463.414 377.066 463.289 377.189 463.199 377.337C463.109 377.485 463.057 377.652 463.048 377.825L462.779 377.529L462.631 377.57Z" fill="#FAFAFA"/>
<path d="M469.58 378.699C469.093 379.095 468.722 379.615 468.505 380.204C468.41 380.502 468.431 380.825 468.563 381.109C468.695 381.392 468.928 381.616 469.217 381.736C469.822 381.884 470.386 381.387 470.736 380.876C470.909 380.655 471.032 380.398 471.095 380.124C471.157 379.85 471.159 379.565 471.099 379.29C470.924 378.753 470.158 378.444 469.755 378.847L469.58 378.699Z" fill="#FAFAFA"/>
<path d="M459.567 375.056C459.503 374.936 459.414 374.829 459.308 374.743C459.201 374.657 459.079 374.593 458.947 374.556C458.815 374.518 458.677 374.507 458.542 374.524C458.406 374.541 458.275 374.585 458.156 374.653C457.925 374.813 457.756 375.046 457.675 375.315C457.595 375.583 457.608 375.871 457.712 376.132C457.83 376.394 458.018 376.62 458.255 376.783C458.492 376.947 458.769 377.042 459.056 377.059C459.728 377.126 460.535 376.575 460.4 375.903C460.561 376.096 460.77 376.244 461.006 376.331C461.242 376.418 461.496 376.442 461.744 376.4C462.223 376.324 462.68 376.15 463.088 375.89C463.666 375.554 464.271 375.056 464.217 374.398C464.175 374.135 464.044 373.894 463.846 373.716C463.648 373.537 463.395 373.432 463.129 373.417C462.865 373.404 462.602 373.446 462.355 373.538C462.107 373.63 461.881 373.772 461.691 373.954C461.382 374.223 461.113 374.546 460.777 374.788C460.616 374.92 460.421 375.005 460.215 375.033C460.009 375.062 459.798 375.033 459.607 374.949L459.567 375.056Z" fill="#FAFAFA"/>
<path d="M468.115 405.619H450.899L449.219 388.268H469.795L468.115 405.619Z" fill="#F0F0F0"/>
<path d="M471.139 389.169H447.714L447.297 386.857H471.556L471.139 389.169Z" fill="#FAFAFA"/>
<path d="M450.24 457.806H430.483L436.679 437.862L437.58 434.958H442.055L450.24 457.806Z" fill="#EBEBEB"/>
<path d="M437.579 434.958L436.679 437.862L430.483 457.806L412.218 457.538L406.345 437.862L405.444 434.958H437.579Z" fill="#E0E0E0"/>
<path d="M437.58 434.958L436.68 437.862L430.484 457.806L392.973 457.255L400.969 434.958H437.58Z" fill="#FAFAFA"/>
<path d="M437.579 434.958L436.679 437.862H399.934L400.968 434.958H437.579Z" fill="#EBEBEB"/>
<path d="M405.579 447.337H397.34L400.216 439.273L408.092 439.354L405.579 447.337ZM398.294 446.665H405.014L407.111 439.945L400.619 439.878L398.294 446.665Z" fill="#EBEBEB"/>
<path d="M414.798 447.337H406.56L409.422 439.273L417.312 439.354L414.798 447.337ZM407.5 446.665H414.301L416.398 439.945L409.906 439.878L407.5 446.665Z" fill="#EBEBEB"/>
<path d="M424.005 447.337H415.767L418.643 439.273L426.519 439.354L424.005 447.337ZM416.721 446.665H423.521L425.605 439.945L419.113 439.878L416.721 446.665Z" fill="#EBEBEB"/>
<path d="M433.225 447.337H424.986L427.863 439.273L435.738 439.354L433.225 447.337ZM425.941 446.665H432.768L434.865 439.945L428.373 439.878L425.941 446.665Z" fill="#EBEBEB"/>
<path d="M402.703 455.952H394.464L397.34 447.888L405.216 447.982L402.703 455.952ZM395.418 455.28H402.205L404.302 448.56H397.81L395.418 455.28Z" fill="#EBEBEB"/>
<path d="M411.922 455.952H403.684L406.56 447.888L414.436 447.982L411.922 455.952ZM404.638 455.28H411.425L413.522 448.56H407.03L404.638 455.28Z" fill="#EBEBEB"/>
<path d="M421.129 455.952H412.891L415.767 447.888L423.643 447.982L421.129 455.952ZM413.845 455.28H420.672L422.769 448.56H416.264L413.845 455.28Z" fill="#EBEBEB"/>
<path d="M430.349 455.952H422.11L424.986 447.888L432.862 447.982L430.349 455.952ZM423.065 455.28H429.852L431.948 448.56H425.457L423.065 455.28Z" fill="#EBEBEB"/>
<path d="M555.354 394.854C555.354 399.087 556.027 401.829 557.142 403.59C557.572 404.234 558.156 404.759 558.842 405.119C559.528 405.478 560.292 405.659 561.066 405.646H567.168C567.94 405.658 568.703 405.476 569.386 405.117C570.07 404.758 570.652 404.233 571.079 403.59C572.208 401.829 572.867 399.087 572.867 394.854C572.867 388.712 570.179 383.793 569.319 379.868C568.996 378.457 570.044 374.116 570.044 374.116H558.15C558.15 374.116 559.198 378.457 558.876 379.868C558.029 383.793 555.354 388.712 555.354 394.854Z" fill="#F0F0F0"/>
<path d="M568.095 344.467C566.853 344.813 565.746 345.53 564.923 346.524C563.754 348.083 565.77 351.738 565.77 351.738C566.326 352.283 567.003 352.688 567.746 352.922C568.489 353.156 569.276 353.21 570.044 353.082L572.423 352.504C572.423 352.504 569.856 345.408 568.109 344.938L568.095 344.467Z" fill="#EBEBEB"/>
<path d="M577.45 346.174C577.141 349.305 574.507 352.813 571.711 352.544C568.916 352.276 567.047 348.284 567.357 345.166C567.666 342.048 569.951 342.155 572.733 342.478C575.515 342.8 577.773 343.056 577.45 346.174Z" fill="#EBEBEB"/>
<path d="M569.587 343.755C569.587 343.755 571.375 345.825 575.877 345.663C575.877 345.663 568.203 348.916 569.587 343.755Z" fill="#EBEBEB"/>
<path d="M571.55 343.5C571.55 343.5 574.05 343.5 573.902 344.548C573.902 344.548 575.972 344.817 575.851 343.903C575.73 342.989 571.55 343.5 571.55 343.5Z" fill="#EBEBEB"/>
<path d="M569.587 343.755C569.587 343.755 571.375 345.825 575.877 345.663C575.877 345.663 568.203 348.916 569.587 343.755Z" fill="#E0E0E0"/>
<path d="M571.55 343.5C571.55 343.5 574.05 343.5 573.902 344.548C573.902 344.548 575.972 344.817 575.851 343.903C575.73 342.989 571.55 343.5 571.55 343.5Z" fill="#E0E0E0"/>
<path d="M566.926 352.639C567.259 353.42 567.804 354.093 568.501 354.58C569.197 355.067 570.015 355.349 570.864 355.394C571.712 355.427 572.557 355.283 573.347 354.97C574.136 354.658 574.851 354.184 575.447 353.579C576.631 352.361 577.459 350.841 577.839 349.185C577.947 348.755 578.188 347.693 577.651 347.411C577.113 347.128 576.697 347.827 576.401 348.123C575.543 348.974 574.597 349.731 573.579 350.381C572.578 351.015 571.504 351.525 570.38 351.899C570.071 352.007 567.033 352.921 566.926 352.639Z" fill="#EBEBEB"/>
<path d="M579.855 348.728C579.991 349.404 579.951 350.104 579.739 350.76C579.528 351.417 579.151 352.008 578.645 352.477C577.954 353.071 577.156 353.527 576.293 353.821C575.702 354.036 574.949 354.211 574.506 353.821C574.062 353.432 574.224 352.545 574.506 351.913C574.896 350.945 575.299 349.991 575.742 349.037C576.056 348.08 576.509 347.174 577.086 346.349C577.651 345.784 578.215 346.349 578.807 346.886C579.314 347.396 579.676 348.031 579.855 348.728Z" fill="#EBEBEB"/>
<path d="M567.947 351.066C567.423 350.936 566.946 350.66 566.572 350.27C566.199 349.88 565.944 349.391 565.837 348.862C565.689 348.069 566.039 346.174 567.033 346.174C567.027 347.848 567.337 349.507 567.947 351.066Z" fill="#E0E0E0"/>
<path d="M575.515 351.617C576.045 351.566 576.554 351.384 576.997 351.089C577.44 350.793 577.803 350.393 578.055 349.924C578.324 349.4 578.646 346.55 577.584 347.572C577.235 347.908 577.06 349.158 576.818 349.628C576.467 350.342 576.029 351.01 575.515 351.617Z" fill="#E0E0E0"/>
<path d="M571.361 352.625C571.695 353.021 572.15 353.296 572.656 353.405C573.162 353.514 573.69 353.453 574.157 353.23C573.955 353.754 572.154 353.889 571.603 353.942C570.138 354.09 569.533 353.338 568.297 352.531C568.297 352.531 570.353 353.257 571.361 352.625Z" fill="#E0E0E0"/>
<path d="M562.478 402.273L565.918 367.571L570.461 355.246L571.254 355.542L566.725 367.799L563.136 403.227L562.478 402.273Z" fill="#E6E6E6"/>
<path d="M566.697 367.503L565.945 367.88C565.404 366.706 564.954 365.493 564.601 364.251C563.944 361.789 562.973 359.422 561.711 357.208L562.423 356.765C563.723 359.037 564.726 361.467 565.407 363.995C565.751 365.195 566.182 366.367 566.697 367.503Z" fill="#E6E6E6"/>
<path d="M568.512 362.947C569.691 362.86 570.799 362.349 571.63 361.509C572.504 360.499 573.159 359.318 573.552 358.042C572.02 358.203 570.609 357.208 569.077 357.101C568.466 357.062 567.855 357.163 567.289 357.396C566.723 357.629 566.218 357.988 565.811 358.445C564.776 359.654 564.171 361.133 564.736 361.858C565.804 362.701 567.16 363.092 568.512 362.947Z" fill="#F0F0F0"/>
<path d="M556.255 359.184C556.967 358.7 557.777 358.379 558.627 358.244C559.478 358.109 560.347 358.164 561.174 358.404C561.828 358.651 562.413 359.051 562.88 359.57C563.348 360.089 563.684 360.712 563.862 361.388C563.558 361.779 563.154 362.082 562.693 362.264C562.232 362.446 561.731 362.501 561.241 362.423C560.263 362.243 559.325 361.888 558.473 361.374C557.619 360.865 556.681 360.51 555.704 360.326L556.255 359.184Z" fill="#F0F0F0"/>
<path d="M563.835 359.842C561.846 360.071 560.058 360.461 558.244 358.203C557.034 356.684 557.424 354.386 557.505 352.571C559.757 353.29 561.938 354.212 564.023 355.327C564.47 355.527 564.865 355.828 565.177 356.206C565.489 356.583 565.711 357.027 565.824 357.504C565.889 357.968 565.775 358.44 565.506 358.824C565.236 359.208 564.831 359.476 564.373 359.574L563.835 359.842Z" fill="#F0F0F0"/>
<path d="M558.136 386.857C557.166 389.098 556.707 391.526 556.792 393.966C556.792 394.423 556.98 394.948 557.316 395.028C557.652 395.109 557.921 394.732 558.029 394.316C558.114 393.873 558.141 393.421 558.109 392.972C558.109 389.249 560.125 386.104 560.515 382.475C560.623 381.44 560.354 378.188 559.749 380.58C559.252 382.771 558.875 384.76 558.136 386.857Z" fill="#FAFAFA"/>
<path d="M276.555 460.804C276.555 460.804 280.466 417.514 263.263 396.413C246.06 375.312 276.703 394.518 282.079 415.565C282.079 415.565 283.087 376.589 265.951 351.389C248.815 326.189 278.047 345.045 283.141 372.57C283.141 372.57 284.122 337.814 275.547 319.402C266.972 300.989 279.754 311.942 285.412 323.434C291.07 334.925 288.275 365.568 288.275 365.568C288.275 365.568 294.282 308.986 305.747 312.05C317.211 315.114 293.449 354.587 291.554 373.874C291.554 373.874 301.93 346.994 312.265 351.026C322.6 355.058 297.871 360.756 290.223 399.88L287.939 417.984C287.939 417.984 297.347 391.561 305.894 398.509C314.442 405.458 284.995 422.782 281.702 461.503L276.555 460.804Z" fill="#EBEBEB"/>
<path d="M278.41 463.048C278.41 463.048 274.741 409.517 296.527 384.007C318.313 358.498 280.009 381.252 272.752 407.057C272.752 407.057 272.537 358.969 294.403 328.379C316.27 297.79 279.619 320.167 272.617 353.915C272.617 353.915 272.348 311.015 283.369 288.557C294.39 266.098 278.37 279.216 271.085 293.247C263.801 307.279 266.448 345.058 266.448 345.058C266.448 345.058 260.535 275.049 246.382 278.463C232.23 281.877 260.414 331.336 262.242 355.165C262.242 355.165 250.146 321.673 237.297 326.377C224.448 331.081 254.769 338.849 263.169 387.367L265.494 409.92C265.494 409.92 254.634 377.032 243.869 385.311C233.104 393.59 269.002 415.927 272.093 463.828L278.41 463.048Z" fill="#F0F0F0"/>
<path d="M312.265 489.74C312.265 504.43 296.339 516.351 276.69 516.351C257.04 516.351 241.101 504.43 241.101 489.74C241.101 483.114 244.326 477.08 249.675 472.43L245.469 454.622H307.897L303.744 472.43C309.04 477.12 312.265 483.114 312.265 489.74Z" fill="#EBEBEB"/>
<path d="M336 573.901C479.919 573.901 596.589 567.09 596.589 558.687C596.589 550.285 479.919 543.473 336 543.473C192.081 543.473 75.4121 550.285 75.4121 558.687C75.4121 567.09 192.081 573.901 336 573.901Z" fill="#F5F5F5"/>
<path d="M314.59 345.408L317.95 326.027L324.549 327.936L314.59 345.408Z" fill="#2D6CDF"/>
<path d="M316.808 351.617L335.704 346.147L333.07 339.79L316.808 351.617Z" fill="#2D6CDF"/>
<path d="M320.167 344.319L330.932 323.971L338.19 329.011L320.167 344.319Z" fill="#2D6CDF"/>
<path d="M441.786 155.474H422.204C421.386 155.421 420.619 155.059 420.059 154.461C419.498 153.863 419.187 153.074 419.187 152.255C419.187 151.436 419.498 150.647 420.059 150.049C420.619 149.451 421.386 149.089 422.204 149.036H441.786C442.604 149.089 443.371 149.451 443.931 150.049C444.492 150.647 444.804 151.436 444.804 152.255C444.804 153.074 444.492 153.863 443.931 154.461C443.371 155.059 442.604 155.421 441.786 155.474Z" fill="#2D6CDF"/>
<g opacity="0.7">
<path d="M441.786 155.474H422.204C421.386 155.421 420.619 155.059 420.059 154.461C419.498 153.863 419.187 153.074 419.187 152.255C419.187 151.436 419.498 150.647 420.059 150.049C420.619 149.451 421.386 149.089 422.204 149.036H441.786C442.604 149.089 443.371 149.451 443.931 150.049C444.492 150.647 444.804 151.436 444.804 152.255C444.804 153.074 444.492 153.863 443.931 154.461C443.371 155.059 442.604 155.421 441.786 155.474Z" fill="white"/>
</g>
<path d="M513.623 221.478L438.548 359.641C438.082 360.494 437.296 361.127 436.364 361.402C435.432 361.677 434.429 361.57 433.575 361.106L305.828 291.648C304.975 291.182 304.341 290.397 304.067 289.465C303.792 288.532 303.898 287.529 304.363 286.675L402.004 107.009C402.47 106.156 403.255 105.523 404.188 105.248C405.12 104.974 406.123 105.08 406.977 105.544L492.993 152.315L513.623 221.478Z" fill="#2D6CDF"/>
<g opacity="0.2">
<path d="M513.623 221.478L438.548 359.641C438.082 360.494 437.296 361.127 436.364 361.402C435.432 361.677 434.429 361.57 433.575 361.106L305.828 291.648C304.975 291.182 304.341 290.397 304.067 289.465C303.792 288.532 303.898 287.529 304.363 286.675L402.004 107.009C402.47 106.156 403.255 105.523 404.188 105.248C405.12 104.974 406.123 105.08 406.977 105.544L492.993 152.315L513.623 221.478Z" fill="white"/>
</g>
<path d="M471.47 252.502L376.064 201.024L372.873 206.938L468.278 258.416L471.47 252.502Z" fill="#2D6CDF"/>
<path d="M458.44 276.664L363.035 225.186L359.844 231.1L455.249 282.578L458.44 276.664Z" fill="#2D6CDF"/>
<path d="M445.397 300.839L349.992 249.361L346.801 255.275L442.206 306.753L445.397 300.839Z" fill="#2D6CDF"/>
<path d="M493.167 152.248L470.535 193.912C470.07 194.766 469.964 195.769 470.238 196.701C470.513 197.634 471.146 198.419 471.999 198.885L513.543 221.464L493.167 152.248Z" fill="#2D6CDF"/>
<path opacity="0.7" d="M493.167 152.248L470.535 193.912C470.07 194.766 469.964 195.769 470.238 196.701C470.513 197.634 471.146 198.419 471.999 198.885L513.543 221.464L493.167 152.248Z" fill="white"/>
<path d="M533.192 216.827L458.129 354.99C457.663 355.843 456.878 356.477 455.946 356.751C455.014 357.026 454.01 356.92 453.156 356.455L325.409 287.051C324.554 286.588 323.918 285.803 323.64 284.871C323.363 283.938 323.468 282.934 323.931 282.078L421.572 102.372C422.036 101.517 422.82 100.881 423.753 100.603C424.685 100.326 425.69 100.431 426.545 100.894L512.628 147.665L533.192 216.827Z" fill="#2D6CDF"/>
<g opacity="0.5">
<path d="M533.192 216.827L458.129 354.99C457.663 355.843 456.878 356.477 455.946 356.751C455.014 357.026 454.01 356.92 453.156 356.455L325.409 287.051C324.554 286.588 323.918 285.803 323.64 284.871C323.363 283.938 323.468 282.934 323.931 282.078L421.572 102.372C422.036 101.517 422.82 100.881 423.753 100.603C424.685 100.326 425.69 100.431 426.545 100.894L512.628 147.665L533.192 216.827Z" fill="white"/>
</g>
<path d="M488.531 246.463L398.214 197.743C397.881 197.561 397.515 197.447 397.138 197.408C396.76 197.369 396.379 197.404 396.015 197.513C395.652 197.622 395.313 197.801 395.019 198.041C394.726 198.281 394.482 198.577 394.303 198.912L393.86 199.732C393.678 200.066 393.564 200.433 393.524 200.811C393.485 201.19 393.52 201.572 393.629 201.937C393.738 202.301 393.917 202.641 394.158 202.936C394.398 203.231 394.694 203.476 395.029 203.656L485.346 252.376C486.02 252.739 486.81 252.82 487.543 252.6C488.276 252.381 488.893 251.88 489.257 251.207L489.7 250.374C489.882 250.04 489.995 249.674 490.035 249.297C490.074 248.92 490.038 248.538 489.93 248.175C489.821 247.811 489.641 247.473 489.401 247.179C489.161 246.885 488.866 246.642 488.531 246.463Z" fill="#2D6CDF"/>
<path d="M475.473 270.646L385.154 221.913C383.75 221.155 381.997 221.679 381.239 223.084L380.792 223.912C380.035 225.316 380.559 227.069 381.963 227.827L472.282 276.56C473.687 277.318 475.44 276.794 476.197 275.389L476.644 274.561C477.402 273.157 476.878 271.404 475.473 270.646Z" fill="#2D6CDF"/>
<path d="M462.437 294.833L372.118 246.1C370.714 245.342 368.961 245.866 368.203 247.271L367.756 248.099C366.998 249.503 367.523 251.256 368.927 252.014L459.246 300.747C460.651 301.505 462.404 300.981 463.161 299.576L463.608 298.748C464.366 297.344 463.842 295.591 462.437 294.833Z" fill="#2D6CDF"/>
<path d="M512.75 147.611L490.104 189.275C489.873 189.698 489.728 190.161 489.677 190.64C489.627 191.118 489.672 191.602 489.809 192.063C489.946 192.524 490.174 192.954 490.478 193.326C490.783 193.699 491.158 194.008 491.582 194.235L533.125 216.814L512.75 147.611Z" fill="#2D6CDF"/>
<path opacity="0.7" d="M512.75 147.611L490.104 189.275C489.873 189.698 489.728 190.161 489.677 190.64C489.627 191.118 489.672 191.602 489.809 192.063C489.946 192.524 490.174 192.954 490.478 193.326C490.783 193.699 491.158 194.008 491.582 194.235L533.125 216.814L512.75 147.611Z" fill="white"/>
<path d="M507.562 84.2686L513.879 112.318C489.956 118.877 468.492 142.558 453.05 164.922C446.73 174.209 441.647 184.279 437.93 194.88C437.93 194.88 486.179 151.24 512.777 148.686L511.5 195.041C511.5 195.041 539.093 141.281 592.651 121.659C592.705 121.645 547.788 89.3354 507.562 84.2686Z" fill="#2D6CDF"/>
<path d="M339.643 479.714L349.226 471.771L325.06 448.842L314.752 457.646L339.643 479.714Z" fill="#CB7A63"/>
<path d="M356.994 468.706C355.9 468.391 354.732 468.447 353.674 468.868C353.029 469.056 352.33 469.284 351.766 469.499C351.201 469.714 350.865 469.849 350.502 469.997L349.44 470.467C349.378 470.482 349.322 470.519 349.283 470.57C349.244 470.621 349.224 470.685 349.225 470.749C349.216 470.771 349.212 470.793 349.212 470.816C349.212 470.84 349.216 470.862 349.225 470.884C349.269 470.95 349.336 470.998 349.414 471.018C350.775 471.376 352.164 471.614 353.567 471.73C354.256 471.819 354.956 471.764 355.623 471.569H355.717C356.101 471.442 356.47 471.276 356.819 471.072C357.04 470.895 357.213 470.666 357.323 470.406C357.433 470.145 357.477 469.862 357.451 469.58C357.453 469.408 357.413 469.238 357.333 469.085C357.253 468.933 357.137 468.802 356.994 468.706ZM356.859 469.593C356.892 469.784 356.871 469.979 356.797 470.158C356.723 470.336 356.6 470.49 356.443 470.601C356.121 470.833 355.747 470.98 355.354 471.031C354.813 471.129 354.263 471.16 353.714 471.126C352.857 471.078 352.003 470.97 351.161 470.803L350.529 470.682C351.675 470.134 352.879 469.715 354.118 469.432C354.789 469.262 355.472 469.136 356.16 469.056C356.358 469.046 356.553 469.093 356.725 469.19C356.785 469.236 356.83 469.299 356.854 469.371C356.878 469.443 356.88 469.52 356.859 469.593Z" fill="#2D6CDF"/>
<path d="M352.599 463.68C352.292 463.734 351.999 463.851 351.738 464.022C351.477 464.193 351.253 464.415 351.08 464.674C350.97 464.835 350.876 465.006 350.798 465.185C350.288 466.746 350.186 468.412 350.502 470.023C350.508 470.045 350.508 470.068 350.502 470.091C350.513 470.143 350.538 470.191 350.573 470.231C350.608 470.271 350.654 470.302 350.704 470.319C350.734 470.332 350.766 470.339 350.798 470.339C350.831 470.339 350.863 470.332 350.892 470.319C350.916 470.319 350.94 470.312 350.961 470.3C350.982 470.289 351 470.272 351.013 470.252C351.279 470.026 351.527 469.779 351.752 469.513C352.178 469.008 352.56 468.468 352.895 467.9C353.728 466.556 354.319 465.01 353.956 464.217C353.822 463.868 353.473 463.518 352.599 463.68ZM353.405 464.486C353.634 464.997 353.177 466.206 352.505 467.389C352.096 468.112 351.609 468.788 351.053 469.405C350.868 468.186 350.932 466.943 351.242 465.749C351.32 465.491 351.437 465.246 351.591 465.024C351.814 464.697 352.141 464.455 352.518 464.338H352.707C353.271 464.177 353.379 464.392 353.473 464.459L353.405 464.486Z" fill="#2D6CDF"/>
<path d="M347.975 471.206L335.879 477.281C335.65 477.389 335.466 477.576 335.363 477.808C335.259 478.04 335.242 478.301 335.315 478.545L338.863 489.807C338.951 490.072 339.09 490.317 339.273 490.528C339.456 490.739 339.679 490.912 339.928 491.037C340.178 491.161 340.45 491.236 340.728 491.255C341.007 491.275 341.286 491.24 341.551 491.151L341.752 491.057C362.383 483.813 368.713 478.679 370.863 477.51C377.006 474.163 373.551 469.809 371.267 470.346C360.972 472.806 357.518 472.174 353.069 471.032C351.382 470.678 349.634 470.737 347.975 471.206Z" fill="#263238"/>
<path opacity="0.2" d="M325.074 448.855L337.304 459.702L326.982 468.491L314.752 457.645L325.074 448.855Z" fill="black"/>
<path d="M321.257 468.41L336.645 454.218L333.258 448.277L315.464 463.559L321.257 468.41Z" fill="#2D6CDF"/>
<path opacity="0.5" d="M321.257 468.41L336.645 454.218L333.258 448.277L315.464 463.559L321.257 468.41Z" fill="white"/>
<path d="M330.839 450.361L328.77 452.135L325.692 454.823L323.904 456.341L318.528 460.992L317.493 461.865C317.493 461.865 295.573 449.514 283.369 439.017C275.023 431.8 274.27 429.098 273.383 429.77C261.596 438.748 226.706 469.741 206.936 485.856C206.291 485.936 205.592 485.99 205.001 486.044C194.437 486.81 186.185 485.654 179.68 483.194C179.68 474.62 186.951 454.594 187.556 452.659C187.556 452.659 216.734 423.669 264.016 399.154C264.479 398.919 264.955 398.708 265.44 398.522C266.046 398.241 266.665 397.989 267.295 397.77C269.609 396.848 272.054 396.295 274.539 396.13C276.63 396.046 278.717 396.375 280.681 397.098C281.81 397.498 282.906 397.983 283.961 398.549C284.886 399.027 285.783 399.557 286.649 400.135C288.114 401.063 289.525 402.098 290.855 403.119C293.879 405.458 316.714 434.878 328.985 448.452C329.643 449.084 330.261 449.756 330.839 450.361Z" fill="#2D6CDF"/>
<g opacity="0.1">
<path d="M330.839 450.361L328.77 452.135L325.692 454.823L323.904 456.341L318.528 460.992L317.493 461.865C317.493 461.865 295.573 449.514 283.369 439.017C275.023 431.8 274.27 429.098 273.383 429.77C261.596 438.748 226.706 469.741 206.936 485.856C206.291 485.936 205.592 485.99 205.001 486.044C194.437 486.81 186.185 485.654 179.68 483.194C179.68 474.62 186.951 454.594 187.556 452.659C187.556 452.659 216.734 423.669 264.016 399.154C264.479 398.919 264.955 398.708 265.44 398.522C266.046 398.241 266.665 397.989 267.295 397.77C269.609 396.848 272.054 396.295 274.539 396.13C276.63 396.046 278.717 396.375 280.681 397.098C281.81 397.498 282.906 397.983 283.961 398.549C284.886 399.027 285.783 399.557 286.649 400.135C288.114 401.063 289.525 402.098 290.855 403.119C293.879 405.458 316.714 434.878 328.985 448.452C329.643 449.084 330.261 449.756 330.839 450.361Z" fill="black"/>
</g>
<path d="M175.137 326.592C176.992 334.951 178.927 347.168 173.175 352.921C180.317 365.469 188.886 377.15 198.711 387.73C211.304 365.837 199.369 352.303 199.369 352.303C189.961 350.287 190.082 346.483 191.561 339.924L175.137 326.592Z" fill="#CB7A63"/>
<path d="M167.342 353.942C168.027 351.682 169.445 349.714 171.374 348.351C173.269 346.913 192.878 346.698 197.918 348.351C200.89 349.293 203.418 351.285 205.028 353.955L167.342 353.942Z" fill="#2D6CDF"/>
<path d="M257.618 387.274L262.672 384.962L262.927 393.214C261.47 394.486 259.788 395.475 257.968 396.131C257.399 396.298 256.797 396.314 256.22 396.175C255.644 396.035 255.115 395.747 254.686 395.338C254.256 394.929 253.942 394.415 253.775 393.846C253.608 393.277 253.594 392.675 253.734 392.099C253.984 391.057 254.462 390.084 255.133 389.249C255.805 388.415 256.654 387.74 257.618 387.274Z" fill="#CB7A63"/>
<path d="M269.15 387.287L268.881 390.325C268.844 390.78 268.663 391.213 268.363 391.558C268.063 391.904 267.661 392.145 267.215 392.246L262.887 393.214L262.632 384.962L267.027 385.029C267.304 385.024 267.579 385.074 267.836 385.176C268.094 385.278 268.328 385.431 268.526 385.625C268.724 385.819 268.881 386.05 268.988 386.306C269.095 386.561 269.15 386.835 269.15 387.112V387.287Z" fill="#CB7A63"/>
<path d="M193.362 410.74C201.394 414.868 210.511 416.394 219.449 415.108C230.201 413.293 249.017 402.474 257.175 396.292L254.487 392.26C250.455 393.133 217.137 410.041 195.647 394.746C191.615 391.897 175.903 380.164 170.353 380.406C161.334 380.809 162.114 390.257 165.985 394.195C170.46 398.697 187.139 407.675 193.362 410.74Z" fill="#CB7A63"/>
<g opacity="0.2">
<path d="M268.881 390.324C268.848 390.778 268.67 391.209 268.372 391.553C268.074 391.897 267.673 392.135 267.228 392.233L262.927 393.214C261.47 394.486 259.788 395.475 257.968 396.13C257.712 396.214 257.445 396.26 257.175 396.265C249.004 402.474 230.295 413.28 219.462 415.081C210.529 416.361 201.418 414.835 193.389 410.713C187.166 407.648 170.46 398.617 165.931 394.074C162.06 390.136 161.281 380.634 170.299 380.284C175.85 380.043 191.574 391.776 195.593 394.625C216.102 409.207 247.31 394.504 253.694 392.354C253.688 392.255 253.688 392.156 253.694 392.058C253.928 391.021 254.387 390.048 255.038 389.209C255.71 388.377 256.559 387.706 257.525 387.246L262.538 384.948L266.906 385.015C267.182 385.012 267.455 385.063 267.711 385.166C267.967 385.269 268.2 385.422 268.396 385.616C268.592 385.81 268.748 386.041 268.855 386.295C268.961 386.55 269.016 386.823 269.016 387.098V387.287L268.881 390.324Z" fill="black"/>
<path d="M262.673 384.961L262.632 384.975V384.961H262.673Z" fill="black"/>
</g>
<path d="M221.545 367.45C232.956 392.596 206.493 399.786 218.615 441.02L161.092 442.364C161.469 420.269 169.331 425.013 158.969 383.47C158.095 379.949 156.644 369.855 160.393 360.622C161.827 357.026 164.463 354.039 167.853 352.168C172.1 349.883 190.808 351.671 199.342 352.249C208.589 350.999 219.852 364.305 221.545 367.45Z" fill="#2D6CDF"/>
<path opacity="0.5" d="M221.545 367.45C232.956 392.596 206.493 399.786 218.615 441.02L161.092 442.364C161.469 420.269 169.331 425.013 158.969 383.47C158.095 379.949 156.644 369.855 160.393 360.622C161.827 357.026 164.463 354.039 167.853 352.168C172.1 349.883 190.808 351.671 199.342 352.249C208.589 350.999 219.852 364.305 221.545 367.45Z" fill="white"/>
<path d="M210.552 317.56C210.39 318.662 210.834 319.562 211.519 319.657C212.205 319.751 212.863 318.985 213.065 317.923C213.267 316.861 212.769 315.934 212.084 315.826C211.398 315.719 210.7 316.512 210.552 317.56Z" fill="#263238"/>
<path d="M211.774 315.84L214.462 315.477C214.462 315.477 212.823 317.278 211.774 315.84Z" fill="#263238"/>
<path d="M210.727 319.012C211.313 321.554 212.254 324.002 213.522 326.283C212.928 326.591 212.273 326.765 211.605 326.793C210.936 326.82 210.269 326.701 209.651 326.444L210.727 319.012Z" fill="#A02724"/>
<path d="M214.355 310.168C214.458 310.13 214.548 310.065 214.617 309.98C214.686 309.895 214.73 309.792 214.745 309.684C214.769 309.519 214.727 309.351 214.629 309.215C214.532 309.08 214.385 308.988 214.221 308.958C213.24 308.787 212.232 308.853 211.283 309.153C210.333 309.452 209.469 309.975 208.764 310.679C208.693 310.731 208.633 310.798 208.589 310.875C208.544 310.952 208.517 311.037 208.508 311.126C208.499 311.214 208.509 311.303 208.537 311.388C208.565 311.472 208.61 311.549 208.67 311.615C208.73 311.68 208.803 311.733 208.884 311.768C208.966 311.804 209.054 311.821 209.143 311.821C209.231 311.82 209.319 311.8 209.4 311.763C209.48 311.726 209.552 311.673 209.611 311.606L209.692 311.512C210.258 310.962 210.947 310.553 211.701 310.32C212.456 310.086 213.254 310.034 214.033 310.168C214.139 310.195 214.25 310.195 214.355 310.168Z" fill="#263238"/>
<path d="M175.742 308.851C174.654 321.955 173.914 327.479 179.492 335.099C187.905 346.55 204.262 345.045 209.208 332.532C213.71 321.256 214.732 301.728 202.783 294.726C200.754 293.524 198.508 292.735 196.174 292.404C193.84 292.072 191.463 292.204 189.179 292.792C186.896 293.38 184.751 294.412 182.867 295.83C180.984 297.248 179.398 299.024 178.202 301.056C176.786 303.427 175.944 306.097 175.742 308.851Z" fill="#CB7A63"/>
<path d="M209.516 331.739C208.518 330.881 207.766 329.773 207.339 328.527C207.328 328.458 207.34 328.387 207.374 328.326C207.409 328.265 207.462 328.218 207.527 328.191C207.595 328.175 207.666 328.185 207.726 328.22C207.787 328.255 207.831 328.312 207.85 328.379C208.245 329.449 208.885 330.411 209.718 331.188L209.516 331.739Z" fill="#263238"/>
<path d="M166.401 291.823C161.414 298.543 159.143 300.344 165.325 318.367C167.812 325.611 175.029 335.207 178.537 336.08C184.827 337.666 190.942 333.258 195.659 328.809C199.953 325.074 203.548 320.605 206.277 315.611C208.804 310.518 209.731 304.402 207.621 299.12C205.363 293.382 197.393 288.261 191.426 287.024C184.437 285.519 170.554 286.191 166.401 291.823Z" fill="#263238"/>
<path d="M205.632 316.727C205.632 316.727 207.205 319.415 205.216 321.444V317.856L205.632 316.727Z" fill="#263238"/>
<path d="M205.633 316.727C205.633 316.727 206.211 320.867 202.743 322.412L204.598 317.95L205.633 316.727Z" fill="#263238"/>
<path d="M182.488 334.562C182.488 334.562 178.671 336.295 179.222 340.045L182.004 336.08L182.488 334.562Z" fill="#263238"/>
<path d="M182.637 334.656C182.637 334.656 179.734 337.666 181.642 340.959L182.758 336.242L182.637 334.656Z" fill="#263238"/>
<path d="M210.82 311.31C212.238 309.961 213.492 308.45 214.556 306.808C215.645 305.159 216.121 303.18 215.9 301.217C215.63 299.979 215.09 298.815 214.318 297.81C213.547 296.804 212.564 295.98 211.438 295.397C209.19 294.238 206.78 293.427 204.288 292.992C203.109 292.568 201.812 292.606 200.659 293.099C200.18 293.454 199.803 293.929 199.567 294.477C199.33 295.025 199.244 295.625 199.315 296.217C199.444 297.41 199.771 298.573 200.283 299.658C201.922 304.009 203.128 308.511 203.885 313.098C204.302 315.41 203.993 316.955 206.277 316.055C207.689 315.531 209.664 312.533 210.82 311.31Z" fill="#263238"/>
<path d="M192.73 317.788C192.591 320.82 193.659 323.782 195.7 326.027C198.388 328.984 201.909 327.049 202.904 323.339C203.804 320.033 203.468 314.509 199.88 312.923C196.291 311.337 192.918 314.092 192.73 317.788Z" fill="#CB7A63"/>
<path d="M345.167 485.748L355.542 475.641L335.45 450.388L322.91 457.793L345.167 485.748Z" fill="#CB7A63"/>
<path d="M366.133 472.523C364.99 472.12 362.625 473.41 360.824 474.553C360.367 474.835 359.964 475.117 359.614 475.359L359.44 475.493C359.036 475.776 358.741 475.991 358.633 476.085C358.572 476.114 358.522 476.163 358.493 476.224C358.464 476.285 358.456 476.355 358.472 476.421C358.492 476.488 358.532 476.548 358.587 476.592C358.643 476.635 358.711 476.66 358.781 476.663C360.019 476.716 361.259 476.676 362.49 476.542L363.31 476.448C364.2 476.381 365.056 476.084 365.797 475.588C366.067 475.422 366.32 475.228 366.549 475.01C366.744 474.776 366.877 474.497 366.935 474.199C366.994 473.901 366.977 473.593 366.885 473.303C366.831 473.122 366.735 472.957 366.604 472.822C366.473 472.686 366.311 472.584 366.133 472.523ZM366.213 473.491C366.28 473.687 366.293 473.897 366.253 474.099C366.213 474.302 366.121 474.491 365.985 474.647C365.425 475.188 364.712 475.545 363.942 475.668C363.033 475.876 362.106 475.998 361.173 476.031C360.743 476.031 360.295 476.031 359.829 476.031L360.286 475.695C360.387 475.61 360.495 475.534 360.609 475.467C362.053 474.449 363.644 473.655 365.326 473.115C365.533 473.054 365.752 473.054 365.958 473.115C366.032 473.147 366.094 473.2 366.14 473.266C366.185 473.333 366.21 473.411 366.213 473.491Z" fill="#2D6CDF"/>
<path d="M360.381 468.236C360.075 468.354 359.798 468.534 359.566 468.765C359.335 468.997 359.154 469.275 359.037 469.58C358.177 471.636 359.44 474.835 359.642 475.332C359.665 475.387 359.702 475.434 359.749 475.469C359.796 475.505 359.852 475.527 359.911 475.534C359.977 475.547 360.046 475.547 360.112 475.534C360.159 475.518 360.198 475.484 360.22 475.44C360.432 475.151 360.62 474.845 360.784 474.526C361.779 472.658 362.706 469.54 361.9 468.465C361.698 468.169 361.255 467.873 360.381 468.236ZM360.045 474.58C359.415 473.09 359.265 471.441 359.615 469.862C359.773 469.464 360.069 469.135 360.448 468.935L360.623 468.854C361.201 468.626 361.349 468.854 361.402 468.854C361.994 469.674 361.093 472.859 360.045 474.58Z" fill="#2D6CDF"/>
<path opacity="0.2" d="M334.401 448.842L343.849 460.938L331.068 468.075L321.472 456.288L334.401 448.842Z" fill="black"/>
<path d="M160.568 437.996L159.224 443.224C159.022 443.627 159.52 444.017 160.178 444.003L219.408 442.659C219.933 442.659 220.349 442.377 220.376 442.041L218.898 436.571C218.898 436.222 218.468 435.926 217.903 435.939L161.455 437.606C161.287 437.598 161.12 437.629 160.966 437.697C160.812 437.764 160.676 437.867 160.568 437.996Z" fill="#263238"/>
<path d="M213.28 443.224L211.721 443.399C211.412 443.399 211.156 443.305 211.156 443.103V436.383C211.156 436.182 211.412 435.993 211.707 435.966L213.266 435.778C213.575 435.778 213.831 435.886 213.831 436.087V442.807C213.831 443.009 213.589 443.197 213.28 443.224Z" fill="#2D6CDF"/>
<path d="M192.071 443.52L190.512 443.681C190.216 443.681 189.961 443.587 189.961 443.386V436.666C189.961 436.477 190.216 436.289 190.525 436.249L192.071 436.074C192.38 436.074 192.636 436.168 192.636 436.37V443.09C192.636 443.305 192.38 443.52 192.071 443.52Z" fill="#2D6CDF"/>
<path d="M192.071 443.52L190.512 443.681C190.216 443.681 189.961 443.587 189.961 443.386V436.666C189.961 436.477 190.216 436.289 190.525 436.249L192.071 436.074C192.38 436.074 192.636 436.168 192.636 436.37V443.09C192.636 443.305 192.38 443.52 192.071 443.52Z" fill="#2D6CDF"/>
<path d="M342.344 454.272L339.723 455.75L335.207 458.304L331.175 460.575L327.022 462.914L325.423 463.814L324.428 463.075C324.186 462.914 323.904 462.712 323.581 462.457C322.587 461.718 321.216 460.696 319.549 459.42C311.203 452.807 296.325 439.824 291.89 428.01C289.027 431.424 285.6 435.711 281.675 440.442C264.768 460.831 238.533 489.606 206.976 493.356L205.041 493.557C194.49 494.458 186.225 493.409 179.706 491.03C163.323 485.023 158.753 470.629 159.869 458.385C159.976 452.646 161.092 442.431 161.092 442.431H220.873C229.286 432.204 246.194 416.183 263.464 406.143C263.867 405.888 264.284 405.646 264.701 405.431C265.117 405.216 265.736 404.84 266.246 404.558C271.458 401.615 277.028 399.356 282.818 397.838C284.001 397.555 285.17 397.313 286.326 397.139C287.51 396.961 288.704 396.849 289.901 396.803C298.086 396.44 305.195 399.491 310.061 407.649L341.443 452.928L342.344 454.272Z" fill="#2D6CDF"/>
<path d="M310.088 392.152L244.044 394.881L245.979 352.854L312.023 350.125L310.088 392.152Z" fill="#2D6CDF"/>
<path d="M309.322 395.458L244.233 398.146C243.805 398.175 243.376 398.11 242.975 397.959C242.574 397.807 242.21 397.571 241.908 397.266C241.606 396.962 241.373 396.596 241.225 396.194C241.076 395.791 241.016 395.362 241.047 394.934L242.956 353.176C243.013 352.266 243.402 351.408 244.048 350.765C244.694 350.121 245.553 349.736 246.464 349.682L311.553 346.994C311.981 346.968 312.409 347.034 312.809 347.186C313.209 347.339 313.572 347.575 313.873 347.879C314.175 348.183 314.408 348.548 314.557 348.949C314.706 349.35 314.768 349.779 314.739 350.206L312.817 391.964C312.765 392.874 312.381 393.733 311.736 394.378C311.092 395.022 310.232 395.407 309.322 395.458Z" fill="#263238"/>
<path d="M310.088 392.152L244.044 394.881L245.979 352.854L312.023 350.125L310.088 392.152Z" fill="#2D6CDF"/>
<path opacity="0.9" d="M310.088 392.152L244.044 394.881L245.979 352.854L312.023 350.125L310.088 392.152Z" fill="white"/>
<path opacity="0.1" d="M269.419 348.754L258.506 397.542L262.847 397.367L273.612 348.58L269.419 348.754Z" fill="white"/>
<path opacity="0.1" d="M276.112 348.472L265.199 397.259L273.814 396.91L284.58 348.123L276.112 348.472Z" fill="white"/>
<path d="M288.651 395.982L310.639 395.364C311.015 397.918 309.926 398.872 308.529 398.912L301.5 399.087L296.796 399.195L289.498 399.396L244.218 400.74L243.855 397.555L288.651 395.982Z" fill="#2D6CDF"/>
<path d="M288.651 395.982L310.639 395.364C311.016 397.918 309.927 398.872 308.529 398.912L301.5 399.087L296.796 399.195L289.498 399.396L233.453 401.117C233.139 401.129 232.827 401.049 232.557 400.887C232.287 400.725 232.071 400.487 231.935 400.203C231.819 399.959 231.765 399.69 231.778 399.421C231.792 399.152 231.872 398.89 232.012 398.659C232.152 398.428 232.348 398.236 232.58 398.1C232.813 397.963 233.076 397.887 233.346 397.878L288.651 395.982Z" fill="#2D6CDF"/>
<path opacity="0.2" d="M288.651 395.982L310.639 395.364C311.016 397.918 309.927 398.872 308.529 398.912L301.5 399.087L296.796 399.195L289.498 399.396L233.453 401.117C233.139 401.129 232.827 401.049 232.557 400.887C232.287 400.725 232.071 400.487 231.935 400.203C231.819 399.959 231.765 399.69 231.778 399.421C231.792 399.152 231.872 398.89 232.012 398.659C232.152 398.428 232.348 398.236 232.58 398.1C232.813 397.963 233.076 397.887 233.346 397.878L288.651 395.982Z" fill="black"/>
<path opacity="0.2" d="M310.639 395.364L310.774 396.251C310.826 396.579 310.807 396.914 310.719 397.234C310.63 397.553 310.475 397.85 310.262 398.105C310.049 398.36 309.785 398.566 309.486 398.71C309.187 398.854 308.861 398.932 308.529 398.939L301.5 399.114L288.437 399.584L288.652 396.009L310.639 395.364Z" fill="black"/>
<path opacity="0.2" d="M196.748 368.686C196.748 368.686 193.644 375.016 202.608 391.736L206.358 398.55C207.594 400.794 215.766 396.211 218.266 392.004C218.266 392.004 202.541 382.57 196.748 368.686Z" fill="black"/>
<path d="M272.832 388.174L279.082 386.333L278.087 395.982C278.087 395.982 269.365 401.815 266.341 396.238L267.564 393.133C268.014 391.965 268.722 390.912 269.634 390.054C270.546 389.196 271.639 388.553 272.832 388.174Z" fill="#CB7A63"/>
<path d="M286.272 390.123L285.493 393.604C285.379 394.129 285.099 394.603 284.695 394.956C284.291 395.31 283.783 395.523 283.248 395.566L278.047 395.983L279.055 386.319L284.162 387.126C284.817 387.213 285.411 387.556 285.814 388.08C286.217 388.603 286.396 389.266 286.312 389.921L286.272 390.123Z" fill="#CB7A63"/>
<path d="M220.739 404.544C225.107 410.458 231.236 415.403 238.439 416.815C246.933 418.468 263.276 406.452 270.937 398.684C270.561 395.405 270.776 393.631 267.51 393.174C267.51 393.174 259.07 399.356 243.17 403.066C238.023 404.262 234.596 399.034 230.12 391.359C227.889 387.556 220.712 371.912 217.93 368.431C213.548 362.84 201.103 366.845 206.049 380.298C208.119 385.916 217.177 399.679 220.739 404.544Z" fill="#CB7A63"/>
<path d="M216.089 359.237C224.919 367.301 229.22 381.709 229.22 381.709L208.59 394.289C208.59 394.289 193.537 373.107 196.225 365.729C198.348 360.003 202.286 356.24 207.461 355.918C209.048 355.865 210.63 356.131 212.112 356.702C213.594 357.272 214.947 358.134 216.089 359.237Z" fill="#2D6CDF"/>
<path d="M168.753 444.313H167.194C166.885 444.313 166.629 444.165 166.656 443.964L167.234 437.244C167.234 437.042 167.516 436.881 167.826 436.867H169.385C169.694 436.867 169.949 437.028 169.922 437.217L169.344 443.937C169.312 444.063 169.233 444.172 169.123 444.242C169.013 444.312 168.881 444.338 168.753 444.313Z" fill="#2D6CDF"/>
<path d="M322.87 466.677L342.976 456.624L341.256 449.474L318.327 459.93L322.87 466.677Z" fill="#2D6CDF"/>
<path opacity="0.5" d="M322.87 466.677L342.976 456.624L341.256 449.474L318.327 459.93L322.87 466.677Z" fill="white"/>
<path d="M354.736 474.539L340.866 478.733C340.602 478.805 340.372 478.969 340.219 479.196C340.067 479.423 340 479.697 340.032 479.969L341.712 492.549C341.76 492.845 341.865 493.128 342.023 493.383C342.181 493.638 342.388 493.858 342.632 494.032C342.875 494.206 343.151 494.33 343.444 494.396C343.736 494.462 344.038 494.469 344.333 494.417H344.575C367.746 490.56 375.393 486.353 377.879 485.466C385.003 483.06 382.153 477.819 379.627 477.967C368.283 478.666 364.749 477.348 360.246 475.279C358.499 474.58 356.605 474.326 354.736 474.539Z" fill="#263238"/>
<path d="M168.229 308.703C164.062 309.362 159.936 306.163 158.633 302.158C158.095 300.119 157.988 297.99 158.319 295.908C158.65 293.825 159.411 291.834 160.554 290.062C162.127 287.374 172.435 281.004 176.252 288.18C183.859 302.4 168.229 308.703 168.229 308.703Z" fill="#263238"/>
<path d="M309.497 364.533L268.841 366.253L269.029 362.221L309.685 360.501L309.497 364.533Z" fill="#2D6CDF"/>
<g opacity="0.7">
<path d="M309.497 364.533L268.841 366.253L269.029 362.221L309.685 360.501L309.497 364.533Z" fill="white"/>
</g>
<path d="M309.255 370.124L268.599 371.858L268.773 367.826L309.429 366.092L309.255 370.124Z" fill="#2D6CDF"/>
<g opacity="0.7">
<path d="M309.255 370.124L268.599 371.858L268.773 367.826L309.429 366.092L309.255 370.124Z" fill="white"/>
</g>
<path d="M309 375.729L268.344 377.463L268.532 373.417L309.174 371.697L309 375.729Z" fill="#2D6CDF"/>
<g opacity="0.7">
<path d="M309 375.729L268.344 377.463L268.532 373.417L309.174 371.697L309 375.729Z" fill="white"/>
</g>
<path d="M308.744 381.32L268.088 383.053L268.276 379.021L308.932 377.288L308.744 381.32Z" fill="#2D6CDF"/>
<g opacity="0.7">
<path d="M308.744 381.32L268.088 383.053L268.276 379.021L308.932 377.288L308.744 381.32Z" fill="white"/>
</g>
<path d="M308.502 386.924L267.846 388.658L268.02 384.626L308.676 382.892L308.502 386.924Z" fill="#2D6CDF"/>
<g opacity="0.7">
<path d="M308.502 386.924L267.846 388.658L268.02 384.626L308.676 382.892L308.502 386.924Z" fill="white"/>
</g>
<path d="M252.402 368.532L249.139 368.672L249.196 370.015L252.459 369.874L252.402 368.532Z" fill="#2D6CDF"/>
<g opacity="0.5">
<path d="M252.402 368.532L249.139 368.672L249.196 370.015L252.459 369.874L252.402 368.532Z" fill="white"/>
</g>
<path d="M252.245 372.419L248.982 372.559L249.04 373.902L252.303 373.762L252.245 372.419Z" fill="#2D6CDF"/>
<g opacity="0.5">
<path d="M252.245 372.419L248.982 372.559L249.04 373.902L252.303 373.762L252.245 372.419Z" fill="white"/>
</g>
<path d="M251.262 377.349L247.996 377.48L248.05 378.824L251.316 378.693L251.262 377.349Z" fill="#2D6CDF"/>
<g opacity="0.5">
<path d="M251.262 377.35L247.996 377.48L248.05 378.824L251.316 378.694L251.262 377.35Z" fill="white"/>
</g>
<path d="M251.947 380.166L248.684 380.307L248.741 381.649L252.004 381.509L251.947 380.166Z" fill="#2D6CDF"/>
<g opacity="0.5">
<path d="M251.947 380.166L248.684 380.307L248.741 381.649L252.004 381.509L251.947 380.166Z" fill="white"/>
</g>
<path d="M250.927 385.103L247.661 385.234L247.715 386.578L250.981 386.447L250.927 385.103Z" fill="#2D6CDF"/>
<g opacity="0.5">
<path d="M248.6 385.513L248.721 384.169L251.973 384.021L251.852 385.378L248.6 385.513Z" fill="white"/>
</g>
<path d="M251.642 387.919L248.379 388.057L248.435 389.399L251.698 389.262L251.642 387.919Z" fill="#2D6CDF"/>
<g opacity="0.5">
<path d="M251.642 387.919L248.379 388.057L248.435 389.399L251.698 389.262L251.642 387.919Z" fill="white"/>
</g>
<path d="M255.817 364.815L249.07 367.329L249.137 365.555L252.874 364.95L249.178 364.694L249.245 362.92L255.817 364.815Z" fill="#2D6CDF"/>
<path d="M297.011 358.404L268.841 359.601L268.975 356.805L297.145 355.609L297.011 358.404Z" fill="#2D6CDF"/>
<g opacity="0.7">
<path d="M297.011 358.404L268.841 359.601L268.975 356.805L297.145 355.609L297.011 358.404Z" fill="white"/>
</g>
<path d="M259.003 359.843L254.877 360.031L256.544 358.969L257 359.386L257.498 358.956L259.003 359.843Z" fill="#2D6CDF"/>
<path d="M256.381 358.835L254.715 359.91L254.836 357.437L256.381 358.835Z" fill="#2D6CDF"/>
<path d="M259.271 357.37L259.137 359.695L257.618 358.808L259.271 357.37Z" fill="#2D6CDF"/>
<path d="M257.046 358.4L256.953 358.498L256.963 358.507L257.056 358.409L257.046 358.4Z" fill="white"/>
<path d="M256.978 358.416L256.968 358.425L257.061 358.523L257.071 358.514L256.978 358.416Z" fill="white"/>
<path d="M259.272 357.127L257.498 358.74L257 359.184L256.544 358.754L254.998 357.356L254.877 357.248L259.272 357.127Z" fill="#2D6CDF"/>
<path d="M252.409 357.594L249.146 357.732L249.163 358.135L252.426 357.997L252.409 357.594Z" fill="#2D6CDF"/>
<path d="M252.411 358.614L249.148 358.753L249.166 359.156L252.429 359.017L252.411 358.614Z" fill="#2D6CDF"/>
<path d="M252.415 359.662L249.152 359.8L249.169 360.203L252.432 360.065L252.415 359.662Z" fill="#2D6CDF"/>
<path d="M182.125 390.701L194.316 530.047H174.72L161.603 380.097H170.607C173.504 380.109 176.291 381.204 178.422 383.166C180.553 385.128 181.874 387.815 182.125 390.701Z" fill="#2D6CDF"/>
<path opacity="0.2" d="M182.246 391.964L194.342 530.047H174.72L161.603 380.097H169.344C172.587 380.111 175.707 381.336 178.094 383.531C180.481 385.726 181.962 388.734 182.246 391.964Z" fill="black"/>
<path d="M169.344 389.182L181.669 530.047H64.7409L52.6449 390.916C52.5237 389.542 52.6898 388.157 53.1325 386.851C53.5752 385.544 54.2849 384.344 55.2164 383.326C56.148 382.309 57.2811 381.496 58.5436 380.94C59.8062 380.384 61.1706 380.097 62.5502 380.097H159.56C162.027 380.127 164.395 381.074 166.204 382.753C168.012 384.432 169.131 386.724 169.344 389.182Z" fill="#2D6CDF"/>
<path opacity="0.2" d="M169.492 390.714L181.682 530.047H64.754L52.6983 392.744C52.5566 391.138 52.7505 389.52 53.2676 387.993C53.7847 386.466 54.6137 385.064 55.7019 383.874C56.7901 382.685 58.1138 381.735 59.5888 381.085C61.0639 380.434 62.6581 380.098 64.2701 380.097H157.92C160.827 380.099 163.628 381.191 165.77 383.156C167.912 385.122 169.24 387.818 169.492 390.714Z" fill="white"/>
<path d="M375.232 530.047H65.238L61.8242 491.407H359.386C362.77 491.468 366.014 492.767 368.505 495.057C370.996 497.348 372.562 500.472 372.906 503.839L375.232 530.047Z" fill="#2D6CDF"/>
<path opacity="0.2" d="M375.232 530.047H65.238L61.8242 491.407H359.386C362.77 491.468 366.014 492.767 368.505 495.057C370.996 497.348 372.562 500.472 372.906 503.839L375.232 530.047Z" fill="white"/>
<path d="M389.451 544.844H61.5957C59.5543 544.841 57.5975 544.028 56.1541 542.585C54.7106 541.141 53.8981 539.184 53.8945 537.143C53.8945 535.101 54.7059 533.142 56.1501 531.698C57.5944 530.253 59.5532 529.442 61.5957 529.442H389.451C391.493 529.442 393.452 530.253 394.897 531.698C396.341 533.142 397.152 535.101 397.152 537.143C397.149 539.184 396.336 541.141 394.893 542.585C393.449 544.028 391.492 544.841 389.451 544.844Z" fill="#2D6CDF"/>
<path opacity="0.2" d="M389.452 544.844H199.128C197.085 544.844 195.127 544.033 193.682 542.589C192.238 541.144 191.427 539.186 191.427 537.143C191.425 536.131 191.623 535.129 192.009 534.194C192.396 533.259 192.963 532.409 193.678 531.694C194.394 530.978 195.244 530.411 196.179 530.025C197.114 529.638 198.116 529.44 199.128 529.442H389.452C391.494 529.442 393.453 530.253 394.897 531.698C396.342 533.142 397.153 535.101 397.153 537.143C397.149 539.184 396.337 541.141 394.893 542.585C393.45 544.028 391.493 544.841 389.452 544.844Z" fill="black"/>
<path d="M65.8965 544.844L69.7806 558.056H77.549L81.8229 544.844H65.8965Z" fill="#263238"/>
<path opacity="0.5" d="M65.8965 544.844L69.7806 558.056H77.549L81.8229 544.844H65.8965Z" fill="white"/>
<path d="M177.221 544.844L181.105 558.056H188.873L193.161 544.844H177.221Z" fill="#263238"/>
<path opacity="0.5" d="M177.221 544.844L181.105 558.056H188.873L193.161 544.844H177.221Z" fill="white"/>
<path d="M262.43 544.844L266.314 558.056H274.082L278.356 544.844H262.43Z" fill="#263238"/>
<path opacity="0.5" d="M262.43 544.844L266.314 558.056H274.082L278.356 544.844H262.43Z" fill="white"/>
<path d="M373.753 544.844L377.637 558.056H385.405L389.679 544.844H373.753Z" fill="#263238"/>
<path opacity="0.5" d="M373.753 544.844L377.637 558.056H385.405L389.679 544.844H373.753Z" fill="white"/>
<path d="M142.316 374.855H133.809C133.63 374.855 133.46 374.784 133.334 374.658C133.208 374.532 133.137 374.361 133.137 374.183C133.137 374.005 133.208 373.834 133.334 373.708C133.46 373.582 133.63 373.511 133.809 373.511H142.316C142.493 373.515 142.662 373.587 142.788 373.712C142.913 373.837 142.985 374.006 142.988 374.183C142.988 374.361 142.917 374.532 142.791 374.658C142.665 374.784 142.494 374.855 142.316 374.855Z" fill="#2D6CDF"/>
<path d="M128.151 374.855H85.506C85.3278 374.855 85.1568 374.784 85.0308 374.658C84.9048 374.532 84.834 374.361 84.834 374.183C84.8374 374.006 84.9093 373.837 85.0346 373.712C85.1599 373.587 85.3288 373.515 85.506 373.511H128.151C128.328 373.515 128.497 373.587 128.622 373.712C128.748 373.837 128.82 374.006 128.823 374.183C128.823 374.361 128.752 374.532 128.626 374.658C128.5 374.784 128.329 374.855 128.151 374.855Z" fill="#2D6CDF"/>
<path d="M279.351 452.632C279.183 452.628 279.022 452.566 278.894 452.458C278.831 452.395 278.781 452.321 278.747 452.239C278.713 452.157 278.695 452.069 278.695 451.981C278.695 451.892 278.713 451.804 278.747 451.722C278.781 451.64 278.831 451.566 278.894 451.503L282.926 447.176C282.989 447.113 283.063 447.063 283.145 447.029C283.227 446.995 283.314 446.977 283.403 446.977C283.492 446.977 283.58 446.995 283.662 447.029C283.744 447.063 283.818 447.113 283.88 447.176C284.004 447.304 284.074 447.475 284.074 447.653C284.074 447.831 284.004 448.002 283.88 448.13L279.848 452.458C279.712 452.579 279.533 452.641 279.351 452.632Z" fill="#2D6CDF"/>
<path d="M242.915 487.079C242.79 487.08 242.668 487.045 242.563 486.978C242.459 486.912 242.375 486.816 242.323 486.703C242.282 486.625 242.257 486.539 242.249 486.451C242.242 486.363 242.252 486.274 242.28 486.19C242.308 486.106 242.352 486.028 242.41 485.962C242.468 485.895 242.539 485.841 242.619 485.802C255.064 479.499 274.808 455.925 275.009 455.683C275.065 455.615 275.134 455.559 275.212 455.518C275.29 455.477 275.375 455.452 275.463 455.444C275.55 455.437 275.639 455.447 275.723 455.474C275.806 455.501 275.884 455.545 275.95 455.603C276.086 455.72 276.17 455.885 276.185 456.063C276.2 456.242 276.145 456.419 276.031 456.557C275.224 457.525 255.871 480.574 243.224 486.999C243.13 487.052 243.023 487.08 242.915 487.079Z" fill="#2D6CDF"/>
</svg>
