<svg width="17" height="16" viewBox="0 0 17 16" fill="none" xmlns="http://www.w3.org/2000/svg">
<g clip-path="url(#clip0_2719_21617)">
<path d="M16.3094 8.14946C16.3094 7.49394 16.2562 7.01559 16.1411 6.51953H8.65576V9.47819H13.0495C12.9609 10.2135 12.4826 11.3208 11.4195 12.0648L11.4046 12.1639L13.7714 13.9973L13.9353 14.0137C15.4412 12.6229 16.3094 10.5766 16.3094 8.14946Z" fill="#4285F4"/>
<path d="M8.65583 15.9446C10.8084 15.9446 12.6155 15.2359 13.9354 14.0134L11.4196 12.0646C10.7464 12.534 9.84282 12.8618 8.65583 12.8618C6.54755 12.8618 4.75818 11.4711 4.12032 9.54883L4.02682 9.55677L1.56587 11.4613L1.53369 11.5508C2.84471 14.1551 5.53766 15.9446 8.65583 15.9446Z" fill="#34A853"/>
<path d="M4.1206 9.54887C3.9523 9.05281 3.85489 8.52127 3.85489 7.97208C3.85489 7.42283 3.9523 6.89135 4.11175 6.39529L4.10729 6.28964L1.6155 4.35449L1.53398 4.39327C0.99364 5.474 0.683594 6.68762 0.683594 7.97208C0.683594 9.25654 0.99364 10.4701 1.53398 11.5508L4.1206 9.54887Z" fill="#FBBC05"/>
<path d="M8.65583 3.08269C10.1529 3.08269 11.1627 3.72934 11.7385 4.26974L13.9885 2.07285C12.6067 0.788397 10.8084 0 8.65583 0C5.53766 0 2.84471 1.78937 1.53369 4.39371L4.11146 6.39573C4.75818 4.47347 6.54755 3.08269 8.65583 3.08269Z" fill="#EB4335"/>
</g>
<defs>
<clipPath id="clip0_2719_21617">
<rect width="15.64" height="16" fill="white" transform="translate(0.680176)"/>
</clipPath>
</defs>
</svg>
