<svg width="437" height="16" viewBox="0 0 437 16" fill="none" xmlns="http://www.w3.org/2000/svg">
<line y1="7.5" x2="194" y2="7.5" stroke="#B7B7B7"/>
<path d="M218.7 8.704C218.7 6.088 217.02 4.252 214.608 4.252C212.208 4.252 210.516 6.1 210.516 8.704C210.516 11.308 212.196 13.144 214.608 13.144C217.008 13.144 218.7 11.308 218.7 8.704ZM217.812 8.704C217.812 10.84 216.504 12.316 214.608 12.316C212.712 12.316 211.416 10.852 211.416 8.704C211.416 6.556 212.712 5.092 214.608 5.092C216.504 5.092 217.812 6.556 217.812 8.704ZM221.083 13V9.436H223.591L225.343 13H226.303L224.467 9.292C225.571 8.992 226.219 8.128 226.219 6.892C226.219 5.368 225.163 4.408 223.423 4.408H220.219V13H221.083ZM221.083 5.188H223.423C224.599 5.188 225.331 5.8 225.331 6.916C225.331 8.008 224.635 8.656 223.447 8.656H221.083V5.188Z" fill="#6F6F6F"/>
<line x1="243" y1="7.5" x2="437" y2="7.49998" stroke="#B7B7B7"/>
</svg>
