<svg width="40" height="40" viewBox="0 0 40 40" fill="none" xmlns="http://www.w3.org/2000/svg">
<path d="M0 24C0 32.8366 7.16344 40 16 40L40 40V16C40 7.16344 32.8366 0 24 0H16C7.16344 0 0 7.16344 0 16L0 24Z" fill="#D6C9EB"/>
<path d="M10 16.5C10 13 12 11.5 15 11.5H25C28 11.5 30 13 30 16.5V23.5C30 27 28 28.5 25 28.5H15" stroke="#4B4B4B" stroke-width="1.5" stroke-miterlimit="10" stroke-linecap="round" stroke-linejoin="round"/>
<path d="M25 17L21.87 19.5C20.84 20.32 19.15 20.32 18.12 19.5L15 17" stroke="#4B4B4B" stroke-width="1.5" stroke-miterlimit="10" stroke-linecap="round" stroke-linejoin="round"/>
<path d="M10 24.5H16" stroke="#4B4B4B" stroke-width="1.5" stroke-miterlimit="10" stroke-linecap="round" stroke-linejoin="round"/>
<path d="M10 20.5H13" stroke="#4B4B4B" stroke-width="1.5" stroke-miterlimit="10" stroke-linecap="round" stroke-linejoin="round"/>
</svg>
