<svg width="300" height="326" viewBox="0 0 300 326" fill="none" xmlns="http://www.w3.org/2000/svg">
<path fill-rule="evenodd" clip-rule="evenodd" d="M110.552 0.822306C158.317 -6.0441 199.729 31.3684 233.988 65.4313C268.425 99.6702 299.259 140.551 299.982 189.166C300.712 238.344 279.693 291.171 237.721 316.642C199.843 339.629 153.653 314.294 110.552 304.125C81.362 297.238 52.5778 289.783 31.842 268.067C11.5674 246.833 3.13377 218.464 0.78402 189.166C-1.82843 156.593 1.63496 124.685 18.0795 96.4693C41.3059 56.6168 64.975 7.37429 110.552 0.822306Z" fill="#EDF3FE"/>
<path d="M260 231L262.701 238.299L270 241L262.701 243.701L260 251L257.299 243.701L250 241L257.299 238.299L260 231Z" fill="#2D6CDF"/>
<path d="M30 103L31.6205 107.379L36 109L31.6205 110.621L30 115L28.3795 110.621L24 109L28.3795 107.379L30 103Z" fill="#0FBD3B"/>
</svg>
