<svg width="19" height="18" viewBox="0 0 19 18" fill="none" xmlns="http://www.w3.org/2000/svg">
<path d="M9.5 9C11.5711 9 13.25 7.32107 13.25 5.25C13.25 3.17893 11.5711 1.5 9.5 1.5C7.42893 1.5 5.75 3.17893 5.75 5.25C5.75 7.32107 7.42893 9 9.5 9Z" stroke="#2D6CDF" stroke-width="1.5" stroke-linecap="round" stroke-linejoin="round"/>
<path d="M3.05664 16.5C3.05664 13.5975 5.94414 11.25 9.49914 11.25C10.2191 11.25 10.9166 11.3475 11.5691 11.5275" stroke="#2D6CDF" stroke-width="1.5" stroke-linecap="round" stroke-linejoin="round"/>
<path d="M17 13.5C17 13.74 16.97 13.9725 16.91 14.1975C16.8425 14.4975 16.7225 14.79 16.565 15.045C16.0475 15.915 15.095 16.5 14 16.5C13.2275 16.5 12.53 16.2075 12.005 15.7275C11.78 15.5325 11.585 15.3 11.435 15.045C11.1575 14.595 11 14.0625 11 13.5C11 12.69 11.3225 11.9475 11.8475 11.4075C12.395 10.845 13.16 10.5 14 10.5C14.885 10.5 15.6875 10.8825 16.2275 11.4975C16.7075 12.03 17 12.735 17 13.5Z" stroke="#2D6CDF" stroke-width="1.5" stroke-miterlimit="10" stroke-linecap="round" stroke-linejoin="round"/>
<path d="M15.1178 13.4863H12.8828" stroke="#2D6CDF" stroke-width="1.5" stroke-miterlimit="10" stroke-linecap="round" stroke-linejoin="round"/>
<path d="M14 12.3906V14.6331" stroke="#2D6CDF" stroke-width="1.5" stroke-miterlimit="10" stroke-linecap="round" stroke-linejoin="round"/>
</svg>
